<?xml version="1.0" encoding="utf-8"?>
<!-- Generator: Adobe Illustrator 22.0.1, SVG Export Plug-In . SVG Version: 6.00 Build 0)  -->
<svg version="1.1" id="Laag_1" xmlns="http://www.w3.org/2000/svg" xmlns:xlink="http://www.w3.org/1999/xlink" x="0px" y="0px"
	 viewBox="0 0 181.5 76" style="enable-background:new 0 0 181.5 76;" xml:space="preserve">
<style type="text/css">
	.st0{clip-path:url(#SVGID_2_);fill:#231F20;}
	.st1{clip-path:url(#SVGID_2_);fill:#FFFFFF;}
</style>
<g>
	<defs>
		<rect id="SVGID_1_" x="8.9" y="13.8" width="159.2" height="55"/>
	</defs>
	<clipPath id="SVGID_2_">
		<use xlink:href="#SVGID_1_"  style="overflow:visible;"/>
	</clipPath>
	<path class="st0" d="M168.1,52.7c-0.5,2.3-2.7,1-3.4-1c-0.7,2-2.9,3.3-3.4,1c-0.5-2.3,3.4-8.6,3.4-8.6S168.6,50.4,168.1,52.7"/>
	<path class="st0" d="M166.3,39.7c-1.2,0.5-28,1-29.4,1.3c-0.4,4.6-0.6,8.1-0.6,10.4c0,1.3,0.2,1.9,0.6,1.9c0.6,0,1.3-0.7,2.3-2
		c0.9-1.3,1.9-3,2.8-5c0.9-2.1,1.5-3.1,1.7-3.1c0.2,0,0.3,0.1,0.3,0.4c0,0.9-0.5,2.3-1.4,4.2c-2.5,5.3-4.6,7.9-6.3,7.9
		c-1.7,0-2.7-0.2-3-0.6c-0.3-0.4-0.4-1.8-0.4-4.1c0-2.3,0.2-5.6,0.7-10c-1.6-0.3-2.4-1-2.5-1.9c0-0.5,0.3-0.8,1-0.8s1.2,0.1,1.7,0.4
		c0.3-2.3,0.6-4.6,1-6.9c0.1-0.6,0.4-1.2,0.9-1.7c0.5-0.5,1-0.8,1.5-0.8c0.4,0,0.6,0.6,0.6,1.9c0,0.6-0.2,3.4-0.7,8.3
		c0.8-0.2,28-0.9,29.1-0.9C166.5,38.6,166.9,39.5,166.3,39.7"/>
	<path class="st0" d="M24.1,23l0.2-1.8c-0.1-2.5-1.3-3.8-3.4-3.8c-1.3,0-2.4,0.7-3.3,2c-0.9,1.3-1.4,2.7-1.4,4.2
		c0,1.5,0.4,2.8,1.2,3.9c0.8,1.1,1.8,2.1,3,3c1.2,0.9,2.4,1.8,3.5,2.8c1.2,1,2.2,2.3,3,3.9c0.8,1.6,1.2,3.4,1.2,5.4
		c0,4.2-1.1,7.5-3.3,9.9c-2.2,2.4-4.6,3.6-7.1,3.6c-2.5,0-4.7-0.7-6.4-2.1c-1.7-1.4-2.5-3.5-2.5-6.3c0-1.5,0.3-2.9,1-4.1
		c0.7-1.2,1.7-1.8,3-1.8c0.5,0,1,0.2,1.4,0.6c0.4,0.4,0.7,1,0.8,1.7c0,0.7-0.3,1.1-0.8,1.1c-1.1,0-1.6,0.7-1.6,2
		c0,1.5,0.5,3,1.5,4.2c1,1.3,2.3,1.9,4.1,1.9c1.7,0,3.2-0.9,4.5-2.7c1.2-1.8,1.9-3.9,1.9-6.5c0-1.7-0.4-3.2-1.3-4.6
		c-0.8-1.4-1.9-2.5-3.1-3.5c-1.2-1-2.4-1.9-3.6-2.9c-1.2-1-2.2-2.2-3.1-3.6c-0.8-1.4-1.3-3-1.3-4.8c0-3.1,0.9-5.7,2.7-7.5
		c1.8-1.9,3.9-2.8,6.2-2.8c1.5,0,2.9,0.5,4.2,1.4c1.3,0.9,1.9,2.4,1.9,4.3c0,1.1-0.2,2.1-0.6,2.8c-0.4,0.8-0.9,1.1-1.5,1.1
		S24.1,23.7,24.1,23"/>
	<path class="st0" d="M146.3,13.9c0,0-5.4,0.1-6.1,6.3c0,0-1.7,1-1.8,2.5c0,0,3.7-0.2,3.7,2.6c0,2.9-1.9,11.9,7.9,15.3
		c2.7,0.9,7.9-1.2,15.3,4.6c0,0-1.2-1.6-5-12.4L159,29c-0.7-1.7-1.7-4-1.7-4S152.7,13.1,146.3,13.9"/>
	<path class="st0" d="M31,51.4l0.3-5.3c0-3.4,0.2-5.2,0.5-5.5c0.3-0.3,0.9-0.8,1.7-1.4c0.8-0.6,1.4-0.9,1.7-0.9s0.6,0.1,0.7,0.2
		c0.1,0.1,0.1,0.4,0.1,0.8c0,1.4-0.3,2.7-0.9,4.1c-0.5,2.9-0.7,5.3-0.7,7.1c0,1.9,0.3,2.8,0.9,2.8c0.7,0,1.6-0.6,2.5-1.9
		c1-1.3,1.9-3.1,2.9-5.6c0.3-3.1,0.5-4.8,0.7-5.1c0.2-0.2,0.6-0.7,1.3-1.4c0.7-0.7,1.3-1,1.7-1c0.5,0,0.7,0.6,0.7,1.8
		c0,0.3-0.1,0.9-0.3,1.8c-0.2,0.9-0.4,1.6-0.6,2c-0.3,0.9-0.5,3.6-0.5,8.2c0,0.8,0.1,1.3,0.3,1.3c0.5,0,1.3-0.7,2.2-2
		c0.9-1.3,1.9-3,2.8-5c0.9-2,1.5-3.1,1.7-3.1s0.3,0.1,0.3,0.4c0,0.9-0.5,2.3-1.4,4.2c-2.5,5.3-4.6,7.9-6.3,7.9
		c-1.2,0-2.2-0.3-2.8-0.8c-0.2-0.2-0.3-0.9-0.3-2c0-1.1,0-2.4,0.1-3.8c-1,2.1-2,3.8-3,4.9c-1,1.1-2.1,1.7-3.4,1.7
		c-1.2,0-2.1-0.3-2.5-1C31.2,54.1,31,53,31,51.4"/>
	<path class="st0" d="M52.2,50.4c-1.3,1.3-1.9,2.3-1.9,3c0,0.8,0.4,1.2,1.2,1.2c0.5,0,0.9-0.2,1.2-0.6C53.3,53,53.2,51.8,52.2,50.4
		 M55.2,41.1l0.1-0.7c0-0.6-0.3-0.8-1-0.8c-0.6,0-1.3,0.4-1.9,1.3c-0.6,0.8-0.9,1.5-0.9,2.1c0,0.5,0,1,0.1,1.3
		c0.1,0.3,0.1,0.6,0.2,0.8c0.1,0.2,0.2,0.4,0.4,0.7c0.2,0.3,0.3,0.5,0.4,0.6l0.5,0.7c0.2,0.3,0.4,0.5,0.5,0.6
		c1.6-1.4,3.6-2.9,5.9-4.5c0.1-0.1,0.3-0.1,0.4-0.1c0.3,0,0.5,0.2,0.5,0.5s-0.1,0.6-0.4,0.8c-2,1.3-3.9,2.7-5.7,4.2
		c0.7,1,1,2.1,1,3.3s-0.5,2.2-1.4,3.1C53,55.5,51.9,56,50.5,56c-1.4,0-2.1-0.7-2.1-2c0-1,1-2.5,3.1-4.5c-0.2-0.2-0.4-0.5-0.8-0.9
		c-0.4-0.4-0.7-0.8-0.9-1c-0.2-0.3-0.4-0.6-0.7-1c-0.5-0.8-0.8-1.6-0.8-2.5c0-1.9,0.6-3.4,1.8-4.5c1.2-1.1,2.5-1.7,3.8-1.7
		c0.8,0,1.5,0.2,2,0.7c0.5,0.5,0.7,0.9,0.7,1.4c0,1.1-0.3,1.6-0.8,1.6C55.4,41.4,55.2,41.3,55.2,41.1"/>
	<path class="st0" d="M73.2,57.2l1.3-0.1c0.3,0,0.4,0.1,0.4,0.4c0,0.4-0.3,0.8-0.9,1c-0.6,0.2-1.3,0.3-2,0.3c-1.4,0-2.6-0.6-3.6-1.7
		c-1-1.1-2.3-3.2-4-6.3c-0.4-0.7-0.6-1.2-0.6-1.5c0-0.5,0.7-1,2-1.7c2.1-1.1,3.2-2.5,3.2-4.2c0-0.5-0.2-0.9-0.5-1.2
		c-0.3-0.3-0.8-0.5-1.3-0.5c-0.8,0-1.7,0.9-2.7,2.7c-1,1.8-1.7,3.4-2.1,5s-0.5,3.2-0.5,5c0,0.9-0.3,1.3-0.8,1.3
		c-0.7,0-1.4-0.1-2.1-0.3c-0.7-0.2-1-0.5-1-0.8c0-0.3,0.1-1.8,0.4-4.5c0.3-2.7,0.4-4.6,0.4-5.7c0.1-6.4,0.5-11.3,1.1-14.7
		c0.1-0.3,0.5-0.8,1.3-1.5c0.8-0.7,1.4-1,1.9-1c0.5,0,0.7,0.6,0.7,1.8c0,1.2-0.3,3.7-0.8,7.6c-0.5,3.9-0.8,7.4-0.9,10.6
		c0.6-2,1.5-3.9,2.7-5.7c1.2-1.8,2.5-2.7,3.8-2.7c2.1,0,3.2,1,3.2,3.1c0,1.4-0.4,2.6-1.2,3.8c-0.8,1.1-1.9,2-3.3,2.7
		c-0.3,0.1-0.4,0.3-0.4,0.4c0,0.2,0,0.3,0.1,0.5c2,3.5,3.7,5.9,5.1,7.4C72.4,57,72.8,57.2,73.2,57.2"/>
	<path class="st0" d="M77.5,47.6c1.9-0.3,3.2-0.9,4.1-1.8c0.9-0.9,1.3-2,1.3-3.4s-0.5-2.1-1.4-2.1c-1.1,0-2,0.8-2.8,2.3
		C77.9,44.1,77.5,45.8,77.5,47.6 M80,55.7c-1.8,0-3.2-0.7-4.2-2c-1-1.3-1.6-2.9-1.6-4.6c0-3.4,0.7-6,2.2-7.8
		c1.4-1.8,3.3-2.6,5.6-2.6c1.1,0,2,0.3,2.6,0.9c0.7,0.6,1,1.4,1,2.4c0,1.9-0.8,3.5-2.4,4.7c-1.6,1.3-3.5,1.9-5.8,2
		c0.1,1.2,0.5,2.3,1.3,3.2c0.7,0.9,1.5,1.3,2.5,1.3c0.9,0,1.8-0.2,2.5-0.7c0.8-0.4,1.4-1.1,2.1-1.9c1.3-1.7,2.5-3.7,3.4-5.9
		c0.2-0.6,0.4-1,0.6-1.2c0.1-0.3,0.3-0.4,0.5-0.4c0.2,0,0.3,0.1,0.3,0.4c0,1.6-1,3.9-2.9,7.1C85.6,54.1,83,55.7,80,55.7"/>
	<path class="st0" d="M103.9,40.1c-0.3,0-0.4,0.5-0.4,1.6s0.5,2.1,1.5,3c0-0.2,0-0.4,0-0.7C105,41.4,104.6,40.1,103.9,40.1
		 M107.7,45.7c1.3,0,2.5-0.6,3.7-1.7c0.6-0.6,1-0.8,1.2-0.8s0.3,0.2,0.3,0.5c0,0.3-0.2,0.7-0.6,1.1c-1.7,1.9-3.8,2.8-6.3,2.8
		c-0.5,2.3-1.3,4.3-2.4,5.8c-1.1,1.6-2.4,2.3-4.1,2.3c-1.6,0-2.8-1-3.5-2.9c-1.3,1.9-2.6,2.9-4,2.9c-2.6,0-3.9-2.5-3.9-7.5
		c0-3.5,0.3-5.9,1-7.1c0.1-0.2,0.6-0.6,1.4-1.1c0.8-0.5,1.4-0.8,1.7-0.8c0.5,0,0.7,0.3,0.7,0.8c-0.1,1.5-0.5,3.2-1.3,5.2
		c-0.2,0.4-0.3,1.3-0.3,2.7c0,1.4,0.2,2.7,0.5,3.8c0.3,1.1,0.8,1.6,1.4,1.6c0.6,0,1.4-0.8,2.3-2.3c-0.2-0.8-0.2-1.6-0.2-2.5
		c0-0.9,0.1-1.9,0.3-2.9c0.2-1,0.6-2.1,1.1-3.1c0.6-1,1.2-1.6,2-1.6c0.3,0,0.4,0.1,0.5,0.2c0.1,0.2,0.2,0.5,0.2,1.1
		c0,1.6-0.4,3.6-1.3,6c0.1,1.4,0.4,2.6,1,3.5c0.5,1,1.1,1.4,1.7,1.4c0.9,0,1.7-0.6,2.3-1.8c0.6-1.2,1.1-2.6,1.5-4.3
		c-1.2-0.3-2.1-0.9-2.7-1.8c-0.6-0.9-0.9-1.9-0.9-3c0-1.1,0.3-2.1,0.8-3c0.6-0.8,1.4-1.3,2.4-1.3c1.4,0,2.2,1.6,2.2,4.7
		c0,0.8,0,1.7-0.1,2.5C106.8,45.7,107.2,45.7,107.7,45.7"/>
	<path class="st0" d="M111.7,32.4c0-0.6,0.3-1.1,0.9-1.5c0.6-0.4,1.1-0.6,1.6-0.6c0.8,0,1.3,0.5,1.3,1.5c0,1-0.3,1.8-0.8,2.5
		c-0.5,0.7-1.2,1.1-2.1,1.1C112,35.4,111.7,34.4,111.7,32.4 M113.1,55.7c-1.2,0-2.2-0.3-2.8-0.8c-0.2-0.2-0.3-1-0.3-2.4
		c0-1.4,0.1-3.6,0.3-6.8c0.2-3.2,0.4-4.9,0.5-5.1s0.6-0.7,1.5-1.4s1.5-1,1.9-1s0.7,0.6,0.7,1.8c0,0.3-0.1,0.9-0.3,1.8
		c-0.2,0.9-0.4,1.6-0.6,2c-0.4,1-0.6,3.8-0.6,8.2c0,0.8,0.1,1.3,0.3,1.3c0.5,0,1.3-0.7,2.2-2c0.9-1.3,1.9-3,2.8-5
		c0.9-2,1.5-3.1,1.7-3.1c0.2,0,0.3,0.1,0.3,0.4c0,0.9-0.5,2.3-1.4,4.2C116.9,53.1,114.8,55.7,113.1,55.7"/>
	<path class="st0" d="M121.5,47.6c1.9-0.3,3.2-0.9,4.1-1.8c0.9-0.9,1.3-2,1.3-3.4s-0.5-2.1-1.4-2.1c-1.1,0-2,0.8-2.8,2.3
		C121.9,44.1,121.5,45.8,121.5,47.6 M124,55.7c-1.8,0-3.2-0.7-4.2-2c-1-1.3-1.6-2.9-1.6-4.6c0-3.4,0.7-6,2.2-7.8
		c1.4-1.8,3.3-2.6,5.6-2.6c1.1,0,2,0.3,2.6,0.9c0.7,0.6,1,1.4,1,2.4c0,1.9-0.8,3.5-2.4,4.7c-1.6,1.3-3.5,1.9-5.8,2
		c0.1,1.2,0.5,2.3,1.3,3.2c0.7,0.9,1.5,1.3,2.5,1.3c0.9,0,1.8-0.2,2.5-0.7c0.8-0.4,1.4-1.1,2.1-1.9c1.3-1.7,2.5-3.7,3.4-5.9
		c0.3-0.6,0.4-1,0.6-1.2c0.1-0.3,0.3-0.4,0.5-0.4c0.2,0,0.3,0.1,0.3,0.4c0,1.6-1,3.9-2.9,7.1C129.6,54.1,127,55.7,124,55.7"/>
	<path class="st0" d="M57.8,68.3v-5.3c0-0.3,0.2-0.5,0.5-0.5s0.5,0.2,0.5,0.5v4.8h2.4c0.3,0,0.5,0.2,0.5,0.5c0,0.3-0.2,0.5-0.5,0.5
		h-2.9h0h0C58,68.8,57.8,68.6,57.8,68.3"/>
	<path class="st0" d="M63.7,68.3v-5.3c0-0.3,0.2-0.5,0.5-0.5h0h0h2.9c0.3,0,0.5,0.2,0.5,0.5s-0.2,0.5-0.5,0.5h-2.4v1.6h2.1
		c0.3,0,0.5,0.2,0.5,0.5c0,0.3-0.2,0.5-0.5,0.5h-2.1v1.6h2.4c0.3,0,0.5,0.2,0.5,0.5c0,0.3-0.2,0.5-0.5,0.5h-2.9c0,0,0,0,0,0l0,0
		C63.9,68.8,63.7,68.6,63.7,68.3"/>
	<path class="st0" d="M69.9,68.3v-5.3c0-0.3,0.2-0.5,0.5-0.5h0h0h2.9c0.3,0,0.5,0.2,0.5,0.5s-0.2,0.5-0.5,0.5h-2.4v1.6h2.1
		c0.3,0,0.5,0.2,0.5,0.5c0,0.3-0.2,0.5-0.5,0.5h-2.1v1.6h2.4c0.3,0,0.5,0.2,0.5,0.5c0,0.3-0.2,0.5-0.5,0.5h-2.9c0,0,0,0,0,0l0,0
		C70.1,68.8,69.9,68.6,69.9,68.3"/>
	<path class="st0" d="M76.1,68.3v-5.3c0-0.3,0.2-0.5,0.5-0.5h0h0h2.9c0.3,0,0.5,0.2,0.5,0.5c0,0.3-0.2,0.5-0.5,0.5H77v1.6h2.1
		c0.3,0,0.5,0.2,0.5,0.5c0,0.3-0.2,0.5-0.5,0.5H77v2.1c0,0.3-0.2,0.5-0.5,0.5C76.3,68.8,76.1,68.6,76.1,68.3"/>
	<path class="st0" d="M83.3,67.8h1.1c0.5,0,0.9-0.4,0.9-0.9c0-0.5-0.4-0.9-0.9-0.9h-1.1V67.8z M83.3,65h0.8c0.4,0,0.7-0.3,0.7-0.7
		c0-0.4-0.3-0.7-0.7-0.7h-0.8V65z M82.3,68.3v-5.3c0-0.3,0.2-0.5,0.5-0.5h0h0h1.2c0.9,0,1.7,0.8,1.7,1.7c0,0.4-0.1,0.7-0.3,1
		c0.5,0.3,0.9,0.9,0.9,1.6c0,1.1-0.9,1.9-1.9,1.9h-1.6c0,0,0,0,0,0c0,0,0,0,0,0C82.6,68.8,82.3,68.6,82.3,68.3"/>
	<path class="st0" d="M93.3,65.6c0-0.6-0.2-1.2-0.6-1.6c-0.4-0.4-0.9-0.6-1.4-0.6c-0.6,0-1.1,0.2-1.4,0.6c-0.4,0.4-0.6,1-0.6,1.6
		c0,0.6,0.2,1.2,0.6,1.6c0.4,0.4,0.9,0.6,1.4,0.6c0.5,0,1-0.2,1.4-0.6C93.1,66.8,93.3,66.2,93.3,65.6 M93.5,63.3
		c0.6,0.6,0.9,1.4,0.9,2.3c0,0.9-0.3,1.7-0.9,2.3c-0.5,0.6-1.3,1-2.1,1c-0.9,0-1.6-0.4-2.2-1c-0.6-0.6-0.9-1.4-0.9-2.3
		c0-0.9,0.3-1.7,0.9-2.3c0.5-0.6,1.3-1,2.2-1C92.1,62.4,92.9,62.8,93.5,63.3"/>
	<path class="st0" d="M97,68.3v-5.3c0-0.3,0.2-0.5,0.5-0.5h0h0h2.9c0.3,0,0.5,0.2,0.5,0.5s-0.2,0.5-0.5,0.5H98v1.6h2.1
		c0.3,0,0.5,0.2,0.5,0.5c0,0.3-0.2,0.5-0.5,0.5H98v1.6h2.4c0.3,0,0.5,0.2,0.5,0.5c0,0.3-0.2,0.5-0.5,0.5h-2.9c0,0,0,0,0,0l0,0
		C97.2,68.8,97,68.6,97,68.3"/>
	<path class="st0" d="M106.2,64.5c0-0.5-0.4-0.9-0.9-0.9h-1.1v1.8h1.1C105.8,65.4,106.2,65,106.2,64.5 M107.5,68.1
		c0.1,0.3-0.1,0.5-0.3,0.6c0,0-0.1,0-0.2,0h0c-0.1,0-0.2,0-0.3-0.1c-0.1-0.1-0.2-0.2-0.3-0.3c-0.1-0.3-0.2-0.6-0.2-1.1
		c0-0.2,0-0.3-0.1-0.4c-0.1-0.1-0.2-0.2-0.3-0.3c-0.2-0.1-0.4-0.2-0.5-0.2h-1.1v1.9c0,0.3-0.2,0.5-0.5,0.5s-0.5-0.2-0.5-0.5v-5.3
		c0-0.3,0.2-0.5,0.5-0.5h0h1.6c1.1,0,1.9,0.9,1.9,1.9c0,0.6-0.3,1.1-0.7,1.5c0.1,0.1,0.2,0.2,0.3,0.3c0.2,0.3,0.3,0.6,0.3,1
		c0,0.3,0,0.4,0,0.5C107.3,67.8,107.4,67.9,107.5,68.1"/>
	<path class="st0" d="M110.8,67.8h0.6c1.2,0,2.1-1,2.1-2.1c0-1.2-0.9-2.1-2.1-2.1h-0.6V67.8z M109.8,68.3v-5.3
		c0-0.3,0.2-0.5,0.5-0.5h1.1c1.7,0,3.1,1.4,3.1,3.1c0,1.7-1.4,3.1-3.1,3.1h-1.1C110,68.8,109.8,68.6,109.8,68.3"/>
	<path class="st0" d="M116.7,68.3v-5.3c0-0.3,0.2-0.5,0.5-0.5h0h0h2.9c0.3,0,0.5,0.2,0.5,0.5s-0.2,0.5-0.5,0.5h-2.4v1.6h2.1
		c0.3,0,0.5,0.2,0.5,0.5c0,0.3-0.2,0.5-0.5,0.5h-2.1v1.6h2.4c0.3,0,0.5,0.2,0.5,0.5c0,0.3-0.2,0.5-0.5,0.5h-2.9c0,0,0,0,0,0l0,0
		C116.9,68.8,116.7,68.6,116.7,68.3"/>
	<path class="st0" d="M125.9,64.5c0-0.5-0.4-0.9-0.9-0.9h-1.1v1.8h1.1C125.5,65.4,125.9,65,125.9,64.5 M127.2,68.1
		c0.1,0.3-0.1,0.5-0.3,0.6c0,0-0.1,0-0.2,0h0c-0.1,0-0.2,0-0.3-0.1c-0.1-0.1-0.2-0.2-0.3-0.3c-0.1-0.3-0.2-0.6-0.2-1.1
		c0-0.2,0-0.3-0.1-0.4c-0.1-0.1-0.2-0.2-0.3-0.3c-0.2-0.1-0.4-0.2-0.5-0.2h-1.1v1.9c0,0.3-0.2,0.5-0.5,0.5c-0.3,0-0.5-0.2-0.5-0.5
		v-5.3c0-0.3,0.2-0.5,0.5-0.5h0h1.6c1.1,0,1.9,0.9,1.9,1.9c0,0.6-0.3,1.1-0.7,1.5c0.1,0.1,0.2,0.2,0.3,0.3c0.2,0.3,0.3,0.6,0.3,1
		c0,0.3,0,0.4,0,0.5C127,67.8,127.1,67.9,127.2,68.1"/>
	<path class="st0" d="M129.6,63.1c0-0.3,0.2-0.5,0.5-0.5c0.3,0,0.5,0.2,0.5,0.5v5.3c0,0.3-0.2,0.5-0.5,0.5c-0.3,0-0.5-0.2-0.5-0.5
		V63.1z"/>
	<path class="st0" d="M133.6,67c0.2,0.5,0.6,0.8,1.2,0.8c0.7,0,1.2-0.6,1.2-1.2v-3.5c0-0.3,0.2-0.5,0.5-0.5c0.3,0,0.5,0.2,0.5,0.5
		v3.5c0,1.2-1,2.2-2.2,2.2c-1,0-1.8-0.6-2.1-1.5c-0.1-0.3,0.1-0.5,0.3-0.6C133.2,66.6,133.5,66.7,133.6,67"/>
	<path class="st1" d="M147.2,19.6c0,0.5-0.4,0.9-0.9,0.9s-0.9-0.4-0.9-0.9c0-0.5,0.4-0.9,0.9-0.9S147.2,19.1,147.2,19.6"/>
</g>
</svg>
