<?xml version="1.0" encoding="utf-8"?>
<!-- Generator: Adobe Illustrator 22.0.1, SVG Export Plug-In . SVG Version: 6.00 Build 0)  -->
<svg version="1.1" id="Laag_1" xmlns="http://www.w3.org/2000/svg" xmlns:xlink="http://www.w3.org/1999/xlink" x="0px" y="0px"
	 viewBox="0 0 104.5 81" style="enable-background:new 0 0 104.5 81;" xml:space="preserve">
<style type="text/css">
	.st0{clip-path:url(#SVGID_2_);fill:#C2C92F;}
	.st1{clip-path:url(#SVGID_2_);fill:#FFFFFF;}
</style>
<g>
	<defs>
		<rect id="SVGID_1_" x="8.8" y="4.3" width="89.4" height="72.7"/>
	</defs>
	<clipPath id="SVGID_2_">
		<use xlink:href="#SVGID_1_"  style="overflow:visible;"/>
	</clipPath>
	<path class="st0" d="M76,74.8c-0.9,4.2-4.9,1.8-6.1-1.8c-1.2,3.6-5.3,6-6.1,1.7C63,70.5,70,59.1,70,59.1S76.9,70.6,76,74.8"/>
	<path class="st0" d="M97.5,51c-2,0.1-76.1,0.5-77.7,0.8c0-0.1,0-0.1,0-0.2c-0.1,0-0.2,0.1-0.3,0.1c-4.8-0.3-5.8-1.4-5.8-1.4l0,0
		c-0.9-0.4-1.9-0.7-3.1-0.7c-1.2,0-1.8,0.5-1.8,1.4c0.2,1.8,1.7,2.9,4.5,3.5l6.2-0.2c2.5-0.5,76.1-0.4,78.2-1.4
		C98.7,52.5,98.1,51,97.5,51"/>
	<path class="st0" d="M36.5,4.4c0,0-9.8,0.1-11,11.4c0,0-3.1,1.9-3.3,4.4c0,0,6.7-0.4,6.8,4.8c0.1,5.2-3.4,21.5,14.3,27.8
		c4.8,1.7,14.3-2.2,27.8,8.4c0,0-2.1-3-9.1-22.5l-2.6-6.9c-1.2-3.1-3.1-7.3-3.1-7.3S48.1,3.1,36.5,4.4"/>
	<path class="st1" d="M38.2,14.8c0,0.9-0.7,1.6-1.6,1.6c-0.9,0-1.6-0.7-1.6-1.6c0-0.9,0.7-1.6,1.6-1.6
		C37.5,13.1,38.2,13.8,38.2,14.8"/>
</g>
</svg>
