<?xml version="1.0" encoding="utf-8"?>
<!-- Generator: Adobe Illustrator 22.0.1, SVG Export Plug-In . SVG Version: 6.00 Build 0)  -->
<svg version="1.1" id="Laag_1" xmlns="http://www.w3.org/2000/svg" xmlns:xlink="http://www.w3.org/1999/xlink" x="0px" y="0px"
	 viewBox="0 0 181.5 76" style="enable-background:new 0 0 181.5 76;" xml:space="preserve">
<style type="text/css">
	.st0{fill:#C2C92F;}
	.st1{fill:#FFFFFF;}
</style>
<g>
	<path class="st0" d="M162.3,56.3c-0.5,2.2-2.5,0.9-3.1-0.9c-0.6,1.9-2.7,3-3.1,0.9c-0.4-2.2,3.2-8,3.2-8S162.8,54.2,162.3,56.3"/>
	<path class="st0" d="M160.7,44.3c-1.1,0.5-25.9,0.9-27.2,1.2c-0.3,4.3-0.5,7.5-0.5,9.6c0,1.2,0.2,1.7,0.5,1.7
		c0.5,0,1.2-0.6,2.1-1.8c0.9-1.2,1.7-2.7,2.6-4.6c0.9-1.9,1.4-2.9,1.6-2.9c0.2,0,0.3,0.1,0.3,0.4c0,0.8-0.4,2.1-1.3,3.9
		c-2.3,4.9-4.2,7.3-5.8,7.3c-1.6,0-2.5-0.2-2.8-0.6c-0.3-0.4-0.4-1.6-0.4-3.8c0-2.1,0.2-5.2,0.6-9.2c-1.5-0.3-2.2-0.9-2.3-1.8
		c0-0.5,0.3-0.7,0.9-0.7s1.1,0.1,1.6,0.3c0.3-2.1,0.6-4.2,0.9-6.4c0.1-0.6,0.4-1.1,0.8-1.6c0.5-0.5,0.9-0.7,1.4-0.7
		c0.4,0,0.6,0.6,0.6,1.8c0,0.6-0.2,3.1-0.6,7.6c0.8-0.1,25.9-0.8,26.9-0.9C160.8,43.3,161.2,44.1,160.7,44.3"/>
	<path class="st0" d="M29.1,28.8l0.2-1.7c-0.1-2.3-1.2-3.5-3.2-3.5c-1.2,0-2.2,0.6-3,1.9c-0.9,1.2-1.3,2.5-1.3,3.9
		c0,1.4,0.4,2.6,1.2,3.6c0.8,1,1.7,1.9,2.8,2.7c1.1,0.8,2.2,1.7,3.3,2.6c1.1,0.9,2,2.1,2.8,3.6c0.8,1.5,1.2,3.1,1.2,5
		c0,3.9-1,6.9-3.1,9.1c-2,2.2-4.2,3.3-6.6,3.3c-2.4,0-4.3-0.6-5.9-1.9c-1.6-1.3-2.4-3.2-2.4-5.8c0-1.4,0.3-2.6,1-3.8
		c0.6-1.1,1.6-1.7,2.8-1.7c0.5,0,0.9,0.2,1.3,0.6c0.4,0.4,0.6,0.9,0.7,1.6c0,0.7-0.3,1-0.8,1c-1,0-1.5,0.6-1.5,1.9
		c0,1.4,0.5,2.7,1.4,3.9c0.9,1.2,2.1,1.8,3.8,1.8c1.6,0,3-0.8,4.1-2.5c1.2-1.6,1.7-3.6,1.7-6c0-1.6-0.4-3-1.2-4.2
		c-0.8-1.3-1.7-2.3-2.8-3.2c-1.1-0.9-2.2-1.8-3.3-2.7c-1.1-0.9-2.1-2-2.9-3.3c-0.8-1.3-1.2-2.8-1.2-4.4c0-2.9,0.8-5.2,2.5-7
		c1.7-1.7,3.6-2.6,5.7-2.6c1.4,0,2.7,0.4,3.9,1.3c1.2,0.9,1.8,2.2,1.8,4c0,1-0.2,1.9-0.5,2.6c-0.4,0.7-0.8,1-1.4,1
		S29.1,29.4,29.1,28.8"/>
	<path class="st0" d="M142.1,20.4c0,0-5,0.1-5.6,5.8c0,0-1.6,1-1.7,2.3c0,0,3.4-0.2,3.5,2.4c0,2.7-1.7,11,7.3,14.2
		c2.5,0.9,7.3-1.1,14.2,4.3c0,0-1.1-1.5-4.6-11.5l-1.3-3.5c-0.6-1.6-1.6-3.7-1.6-3.7S148,19.7,142.1,20.4"/>
	<path class="st0" d="M35.5,55.1l0.3-4.9c0-3.1,0.1-4.8,0.4-5.1c0.3-0.3,0.8-0.7,1.5-1.3S39,43,39.3,43c0.3,0,0.5,0.1,0.6,0.2
		c0.1,0.1,0.1,0.4,0.1,0.7c0,1.3-0.3,2.5-0.8,3.8c-0.4,2.7-0.7,4.9-0.7,6.6s0.3,2.6,0.8,2.6c0.7,0,1.5-0.6,2.4-1.7
		c0.9-1.2,1.8-2.9,2.7-5.2c0.3-2.9,0.5-4.5,0.6-4.7c0.2-0.2,0.6-0.7,1.2-1.3c0.6-0.6,1.2-0.9,1.6-0.9c0.4,0,0.6,0.6,0.6,1.7
		c0,0.3-0.1,0.9-0.2,1.7c-0.2,0.8-0.3,1.5-0.5,1.8c-0.3,0.8-0.5,3.3-0.5,7.6c0,0.8,0.1,1.2,0.3,1.2c0.5,0,1.2-0.6,2.1-1.9
		c0.9-1.2,1.7-2.8,2.6-4.6c0.9-1.9,1.4-2.8,1.6-2.8s0.3,0.1,0.3,0.3c0,0.8-0.4,2.1-1.3,3.9c-2.3,4.9-4.2,7.3-5.8,7.3
		c-1.1,0-2-0.2-2.6-0.7c-0.2-0.2-0.3-0.8-0.3-1.9c0-1,0-2.2,0.1-3.5c-0.9,2-1.9,3.5-2.8,4.5c-0.9,1-2,1.5-3.1,1.5s-1.9-0.3-2.3-0.9
		C35.6,57.6,35.5,56.5,35.5,55.1"/>
	<path class="st0" d="M55.1,54.1c-1.2,1.2-1.7,2.1-1.7,2.8c0,0.7,0.4,1.1,1.1,1.1c0.4,0,0.8-0.2,1.1-0.5
		C56.1,56.6,56,55.5,55.1,54.1 M57.8,45.5l0.1-0.7c0-0.5-0.3-0.8-0.9-0.8c-0.6,0-1.2,0.4-1.7,1.2c-0.6,0.8-0.8,1.4-0.8,1.9
		c0,0.5,0,0.9,0.1,1.2c0.1,0.3,0.1,0.5,0.2,0.7c0.1,0.2,0.2,0.4,0.4,0.7c0.2,0.3,0.3,0.5,0.4,0.6l0.5,0.6c0.2,0.3,0.3,0.5,0.4,0.6
		c1.5-1.2,3.3-2.6,5.4-4.2c0.1-0.1,0.2-0.1,0.4-0.1c0.3,0,0.4,0.2,0.4,0.5s-0.1,0.6-0.4,0.7c-1.9,1.2-3.6,2.5-5.3,3.9
		c0.6,0.9,1,2,1,3.1s-0.4,2.1-1.3,2.8c-0.8,0.8-1.9,1.2-3.2,1.2c-1.3,0-2-0.6-2-1.9c0-0.9,1-2.3,2.9-4.1c-0.1-0.2-0.4-0.5-0.8-0.9
		c-0.4-0.4-0.7-0.7-0.9-0.9c-0.2-0.2-0.4-0.5-0.7-0.9c-0.5-0.7-0.7-1.5-0.7-2.4c0-1.7,0.6-3.1,1.7-4.2c1.1-1.1,2.3-1.6,3.5-1.6
		c0.8,0,1.4,0.2,1.8,0.6c0.4,0.4,0.7,0.9,0.7,1.3c0,1-0.2,1.5-0.7,1.5C58,45.9,57.8,45.8,57.8,45.5"/>
	<path class="st0" d="M74.5,60.4l1.2-0.1c0.2,0,0.4,0.1,0.4,0.4c0,0.4-0.3,0.7-0.8,0.9c-0.6,0.2-1.2,0.3-1.9,0.3
		c-1.3,0-2.4-0.5-3.3-1.6c-0.9-1-2.1-3-3.7-5.8c-0.4-0.6-0.6-1.1-0.6-1.4c0-0.4,0.6-0.9,1.8-1.5c2-1,3-2.3,3-3.8
		c0-0.4-0.2-0.8-0.5-1.1c-0.3-0.3-0.7-0.5-1.2-0.5c-0.7,0-1.5,0.8-2.5,2.5c-1,1.6-1.6,3.2-1.9,4.6s-0.5,3-0.5,4.6
		c0,0.8-0.2,1.2-0.7,1.2c-0.7,0-1.3-0.1-1.9-0.3c-0.6-0.2-0.9-0.4-0.9-0.7c0-0.3,0.1-1.7,0.4-4.1c0.2-2.5,0.4-4.2,0.4-5.3
		c0.1-5.9,0.5-10.5,1-13.6c0.1-0.3,0.5-0.7,1.2-1.4c0.7-0.6,1.3-1,1.7-1c0.4,0,0.6,0.5,0.6,1.6c0,1.1-0.3,3.4-0.7,7
		c-0.5,3.6-0.8,6.9-0.9,9.8c0.5-1.9,1.4-3.6,2.5-5.3c1.1-1.7,2.3-2.5,3.5-2.5c2,0,3,1,3,2.9c0,1.3-0.4,2.4-1.1,3.5
		c-0.8,1-1.8,1.9-3.1,2.5c-0.3,0.1-0.4,0.2-0.4,0.4c0,0.1,0,0.3,0.1,0.4c1.8,3.2,3.4,5.5,4.7,6.8C73.7,60.2,74.1,60.4,74.5,60.4"/>
	<path class="st0" d="M78.5,51.6c1.7-0.3,3-0.8,3.8-1.7c0.8-0.8,1.2-1.9,1.2-3.2c0-1.3-0.4-2-1.3-2c-1,0-1.9,0.7-2.6,2.1
		C78.9,48.3,78.5,49.9,78.5,51.6 M80.8,59.1c-1.6,0-2.9-0.6-3.9-1.9c-1-1.2-1.4-2.6-1.4-4.2c0-3.2,0.7-5.6,2-7.2
		c1.3-1.6,3.1-2.4,5.2-2.4c1,0,1.8,0.3,2.4,0.8c0.6,0.5,1,1.3,1,2.2c0,1.7-0.7,3.2-2.2,4.4c-1.5,1.2-3.3,1.8-5.4,1.9
		c0.1,1.1,0.5,2.1,1.2,2.9c0.7,0.8,1.4,1.2,2.3,1.2c0.9,0,1.7-0.2,2.4-0.6c0.7-0.4,1.3-1,1.9-1.7c1.2-1.6,2.3-3.4,3.1-5.5
		c0.2-0.5,0.4-0.9,0.5-1.1c0.1-0.2,0.3-0.3,0.4-0.3c0.2,0,0.2,0.1,0.2,0.3c0,1.5-0.9,3.6-2.7,6.5C86,57.5,83.6,59.1,80.8,59.1"/>
	<path class="st0" d="M102.9,44.6c-0.3,0-0.4,0.5-0.4,1.5c0,1,0.4,1.9,1.4,2.8c0-0.1,0-0.4,0-0.7C103.9,45.8,103.6,44.6,102.9,44.6
		 M106.4,49.8c1.2,0,2.4-0.5,3.4-1.6c0.5-0.5,0.9-0.8,1.1-0.8c0.2,0,0.3,0.1,0.3,0.4s-0.2,0.6-0.6,1c-1.5,1.7-3.5,2.6-5.8,2.6
		c-0.5,2.2-1.2,3.9-2.2,5.4c-1,1.4-2.2,2.2-3.8,2.2c-1.5,0-2.6-0.9-3.3-2.7c-1.2,1.8-2.4,2.7-3.7,2.7c-2.4,0-3.6-2.3-3.6-7
		c0-3.2,0.3-5.4,1-6.6c0.1-0.2,0.6-0.5,1.3-1c0.8-0.5,1.3-0.7,1.6-0.7c0.4,0,0.7,0.3,0.7,0.8c-0.1,1.4-0.5,3-1.2,4.8
		c-0.2,0.3-0.3,1.2-0.3,2.5c0,1.3,0.2,2.5,0.5,3.5c0.3,1,0.7,1.5,1.3,1.5c0.6,0,1.3-0.7,2.1-2.1C95,54.1,95,53.4,95,52.5
		s0.1-1.7,0.3-2.7s0.5-1.9,1-2.9c0.5-1,1.1-1.4,1.9-1.4c0.2,0,0.4,0.1,0.5,0.2c0.1,0.1,0.2,0.5,0.2,1c0,1.5-0.4,3.3-1.2,5.5
		c0.1,1.3,0.4,2.4,0.9,3.3c0.5,0.9,1,1.3,1.6,1.3c0.8,0,1.6-0.5,2.1-1.6c0.6-1.1,1-2.4,1.4-4c-1.1-0.3-1.9-0.8-2.5-1.7
		c-0.6-0.8-0.9-1.8-0.9-2.8c0-1.1,0.3-2,0.8-2.8c0.5-0.8,1.3-1.2,2.2-1.2c1.3,0,2,1.4,2,4.3c0,0.8,0,1.5-0.1,2.4
		C105.6,49.8,106,49.8,106.4,49.8"/>
	<path class="st0" d="M110.1,37.5c0-0.5,0.3-1,0.8-1.4c0.6-0.4,1-0.6,1.5-0.6c0.8,0,1.2,0.5,1.2,1.4c0,0.9-0.2,1.7-0.7,2.3
		c-0.5,0.7-1.1,1-2,1C110.4,40.3,110.1,39.4,110.1,37.5 M111.4,59.1c-1.1,0-2-0.2-2.6-0.7c-0.2-0.2-0.3-0.9-0.3-2.2
		c0-1.2,0.1-3.3,0.3-6.3c0.2-2.9,0.4-4.5,0.5-4.7s0.6-0.7,1.4-1.3c0.8-0.6,1.3-1,1.8-1c0.4,0,0.6,0.6,0.6,1.7c0,0.3-0.1,0.9-0.2,1.7
		c-0.2,0.8-0.3,1.5-0.5,1.8c-0.4,1-0.6,3.5-0.6,7.6c0,0.8,0.1,1.2,0.3,1.2c0.5,0,1.2-0.6,2.1-1.9c0.9-1.2,1.7-2.8,2.6-4.6
		c0.9-1.9,1.4-2.8,1.6-2.8c0.2,0,0.3,0.1,0.3,0.3c0,0.8-0.4,2.1-1.3,3.9C114.9,56.7,113,59.1,111.4,59.1"/>
	<path class="st0" d="M119.2,51.6c1.7-0.3,3-0.8,3.8-1.7c0.8-0.8,1.2-1.9,1.2-3.2c0-1.3-0.4-2-1.3-2c-1,0-1.9,0.7-2.6,2.1
		C119.6,48.3,119.2,49.9,119.2,51.6 M121.5,59.1c-1.6,0-2.9-0.6-3.9-1.9c-1-1.2-1.4-2.6-1.4-4.2c0-3.2,0.7-5.6,2-7.2
		c1.3-1.6,3.1-2.4,5.2-2.4c1,0,1.8,0.3,2.4,0.8c0.6,0.5,1,1.3,1,2.2c0,1.7-0.7,3.2-2.2,4.4c-1.5,1.2-3.3,1.8-5.4,1.9
		c0.1,1.1,0.5,2.1,1.2,2.9c0.7,0.8,1.4,1.2,2.3,1.2c0.9,0,1.7-0.2,2.4-0.6c0.7-0.4,1.3-1,1.9-1.7c1.2-1.6,2.3-3.4,3.1-5.5
		c0.2-0.5,0.4-0.9,0.5-1.1c0.1-0.2,0.3-0.3,0.4-0.3c0.2,0,0.2,0.1,0.2,0.3c0,1.5-0.9,3.6-2.7,6.5C126.7,57.5,124.3,59.1,121.5,59.1"
		/>
	<path class="st1" d="M143,25.6c0,0.5-0.4,0.8-0.8,0.8s-0.8-0.4-0.8-0.8c0-0.5,0.4-0.8,0.8-0.8S143,25.2,143,25.6"/>
</g>
</svg>
