<?xml version="1.0" encoding="utf-8"?>
<!-- Generator: Adobe Illustrator 22.0.1, SVG Export Plug-In . SVG Version: 6.00 Build 0)  -->
<svg version="1.1" id="Laag_1" xmlns="http://www.w3.org/2000/svg" xmlns:xlink="http://www.w3.org/1999/xlink" x="0px" y="0px"
	 viewBox="0 0 181.5 76" style="enable-background:new 0 0 181.5 76;" xml:space="preserve">
<style type="text/css">
	.st0{clip-path:url(#SVGID_2_);fill:#FFFFFF;}
	.st1{clip-path:url(#SVGID_2_);fill:#231F20;}
</style>
<g>
	<defs>
		<rect id="SVGID_1_" x="9" y="14.5" width="159.2" height="55"/>
	</defs>
	<clipPath id="SVGID_2_">
		<use xlink:href="#SVGID_1_"  style="overflow:visible;"/>
	</clipPath>
	<path class="st0" d="M168.2,53.4c-0.5,2.3-2.7,1-3.4-1c-0.7,2-2.9,3.3-3.4,1c-0.5-2.3,3.4-8.6,3.4-8.6S168.7,51.1,168.2,53.4"/>
	<path class="st0" d="M166.4,40.4c-1.2,0.5-28,1-29.4,1.3c-0.4,4.6-0.6,8.1-0.6,10.4c0,1.3,0.2,1.9,0.6,1.9c0.6,0,1.3-0.7,2.3-2
		c0.9-1.3,1.9-3,2.8-5c0.9-2.1,1.5-3.1,1.7-3.1c0.2,0,0.3,0.1,0.3,0.4c0,0.9-0.5,2.3-1.4,4.2c-2.5,5.3-4.6,7.9-6.3,7.9
		c-1.7,0-2.7-0.2-3-0.6c-0.3-0.4-0.4-1.8-0.4-4.1c0-2.3,0.2-5.6,0.7-10c-1.6-0.3-2.4-1-2.5-1.9c0-0.5,0.3-0.8,1-0.8s1.2,0.1,1.7,0.4
		c0.3-2.3,0.6-4.6,1-6.9c0.1-0.6,0.4-1.2,0.9-1.7c0.5-0.5,1-0.8,1.5-0.8c0.4,0,0.6,0.6,0.6,1.9c0,0.6-0.2,3.4-0.7,8.3
		c0.8-0.2,28-0.9,29.1-0.9C166.6,39.3,167,40.2,166.4,40.4"/>
	<path class="st0" d="M24.2,23.6l0.2-1.8C24.3,19.3,23.2,18,21,18c-1.3,0-2.4,0.7-3.3,2c-0.9,1.3-1.4,2.7-1.4,4.2
		c0,1.5,0.4,2.8,1.2,3.9c0.8,1.1,1.8,2.1,3,3c1.2,0.9,2.4,1.8,3.5,2.8c1.2,1,2.2,2.3,3,3.9c0.8,1.6,1.2,3.4,1.2,5.4
		c0,4.2-1.1,7.5-3.3,9.9c-2.2,2.4-4.6,3.6-7.1,3.6c-2.5,0-4.7-0.7-6.4-2.1C9.9,53.2,9,51.1,9,48.3c0-1.5,0.3-2.9,1-4.1
		c0.7-1.2,1.7-1.8,3-1.8c0.5,0,1,0.2,1.4,0.6c0.4,0.4,0.7,1,0.8,1.7c0,0.7-0.3,1.1-0.8,1.1c-1.1,0-1.6,0.7-1.6,2
		c0,1.5,0.5,3,1.5,4.2c1,1.3,2.3,1.9,4.1,1.9c1.7,0,3.2-0.9,4.5-2.7c1.2-1.8,1.9-3.9,1.9-6.5c0-1.7-0.4-3.2-1.3-4.6
		c-0.8-1.4-1.9-2.5-3.1-3.5c-1.2-1-2.4-1.9-3.6-2.9c-1.2-1-2.2-2.2-3.1-3.6c-0.8-1.4-1.3-3-1.3-4.8c0-3.1,0.9-5.7,2.7-7.5
		c1.8-1.9,3.9-2.8,6.2-2.8c1.5,0,2.9,0.5,4.2,1.4c1.3,0.9,1.9,2.4,1.9,4.3c0,1.1-0.2,2.1-0.6,2.8c-0.4,0.8-0.9,1.1-1.5,1.1
		C24.6,24.7,24.2,24.4,24.2,23.6"/>
	<path class="st0" d="M146.4,14.5c0,0-5.4,0.1-6.1,6.3c0,0-1.7,1-1.8,2.5c0,0,3.7-0.2,3.7,2.6c0,2.9-1.9,11.9,7.9,15.3
		c2.7,0.9,7.9-1.2,15.3,4.6c0,0-1.2-1.6-5-12.4l-1.5-3.8c-0.7-1.7-1.7-4-1.7-4S152.8,13.8,146.4,14.5"/>
	<path class="st0" d="M31.1,52.1l0.3-5.3c0-3.4,0.2-5.2,0.5-5.5c0.3-0.3,0.9-0.8,1.7-1.4c0.8-0.6,1.4-0.9,1.7-0.9s0.6,0.1,0.7,0.2
		c0.1,0.1,0.1,0.4,0.1,0.8c0,1.4-0.3,2.7-0.9,4.1c-0.5,2.9-0.7,5.3-0.7,7.1c0,1.9,0.3,2.8,0.9,2.8c0.7,0,1.6-0.6,2.5-1.9
		c1-1.3,1.9-3.1,2.9-5.6c0.3-3.1,0.5-4.8,0.7-5.1c0.2-0.2,0.6-0.7,1.3-1.4c0.7-0.7,1.3-1,1.7-1c0.5,0,0.7,0.6,0.7,1.8
		c0,0.3-0.1,0.9-0.3,1.8c-0.2,0.9-0.4,1.6-0.6,2c-0.3,0.9-0.5,3.6-0.5,8.2c0,0.8,0.1,1.3,0.3,1.3c0.5,0,1.3-0.7,2.2-2
		c0.9-1.3,1.9-3,2.8-5c0.9-2,1.5-3.1,1.7-3.1c0.2,0,0.3,0.1,0.3,0.4c0,0.9-0.5,2.3-1.4,4.2c-2.5,5.3-4.6,7.9-6.3,7.9
		c-1.2,0-2.2-0.3-2.8-0.8c-0.2-0.2-0.3-0.9-0.3-2c0-1.1,0-2.4,0.1-3.8c-1,2.1-2,3.8-3,4.9c-1,1.1-2.1,1.7-3.4,1.7
		c-1.2,0-2.1-0.3-2.5-1C31.3,54.8,31.1,53.6,31.1,52.1"/>
	<path class="st0" d="M52.3,51c-1.3,1.3-1.9,2.3-1.9,3c0,0.8,0.4,1.2,1.2,1.2c0.5,0,0.9-0.2,1.2-0.6C53.4,53.7,53.3,52.5,52.3,51
		 M55.3,41.7l0.1-0.7c0-0.6-0.3-0.8-1-0.8c-0.6,0-1.3,0.4-1.9,1.3c-0.6,0.8-0.9,1.5-0.9,2.1c0,0.5,0,1,0.1,1.3
		c0.1,0.3,0.1,0.6,0.2,0.8c0.1,0.2,0.2,0.4,0.4,0.7s0.3,0.5,0.4,0.6l0.5,0.7c0.2,0.3,0.4,0.5,0.5,0.6c1.6-1.4,3.6-2.9,5.9-4.5
		c0.1-0.1,0.3-0.1,0.4-0.1c0.3,0,0.5,0.2,0.5,0.5s-0.1,0.6-0.4,0.8c-2,1.3-3.9,2.7-5.7,4.2c0.7,1,1,2.1,1,3.3s-0.5,2.2-1.4,3.1
		c-0.9,0.8-2.1,1.3-3.5,1.3s-2.1-0.7-2.1-2c0-1,1-2.5,3.1-4.5c-0.2-0.2-0.4-0.5-0.8-0.9c-0.4-0.4-0.7-0.8-0.9-1
		c-0.2-0.3-0.4-0.6-0.7-1c-0.5-0.8-0.8-1.6-0.8-2.5c0-1.9,0.6-3.4,1.8-4.5c1.2-1.1,2.5-1.7,3.8-1.7c0.8,0,1.5,0.2,2,0.7
		c0.5,0.5,0.7,0.9,0.7,1.4c0,1.1-0.3,1.6-0.8,1.6C55.5,42.1,55.3,42,55.3,41.7"/>
	<path class="st0" d="M73.3,57.8l1.3-0.1c0.3,0,0.4,0.1,0.4,0.4c0,0.4-0.3,0.8-0.9,1c-0.6,0.2-1.3,0.3-2,0.3c-1.4,0-2.6-0.6-3.6-1.7
		c-1-1.1-2.3-3.2-4-6.3c-0.4-0.7-0.6-1.2-0.6-1.5c0-0.5,0.7-1,2-1.7c2.1-1.1,3.2-2.5,3.2-4.2c0-0.5-0.2-0.9-0.5-1.2
		c-0.3-0.3-0.8-0.5-1.3-0.5c-0.8,0-1.7,0.9-2.7,2.7c-1,1.8-1.7,3.4-2.1,5c-0.4,1.6-0.5,3.2-0.5,5c0,0.9-0.3,1.3-0.8,1.3
		c-0.7,0-1.4-0.1-2.1-0.3c-0.7-0.2-1-0.5-1-0.8c0-0.3,0.1-1.8,0.4-4.5s0.4-4.6,0.4-5.7c0.1-6.4,0.5-11.3,1.1-14.7
		c0.1-0.3,0.5-0.8,1.3-1.5c0.8-0.7,1.4-1,1.9-1c0.5,0,0.7,0.6,0.7,1.8c0,1.2-0.3,3.7-0.8,7.6c-0.5,3.9-0.8,7.4-0.9,10.6
		c0.6-2,1.5-3.9,2.7-5.7c1.2-1.8,2.5-2.7,3.8-2.7c2.1,0,3.2,1,3.2,3.1c0,1.4-0.4,2.6-1.2,3.8c-0.8,1.1-1.9,2-3.3,2.7
		c-0.3,0.1-0.4,0.3-0.4,0.4c0,0.2,0,0.3,0.1,0.5c2,3.5,3.7,5.9,5.1,7.4C72.5,57.6,72.9,57.8,73.3,57.8"/>
	<path class="st0" d="M77.6,48.3c1.9-0.3,3.2-0.9,4.1-1.8c0.9-0.9,1.3-2,1.3-3.4s-0.5-2.1-1.4-2.1c-1.1,0-2,0.8-2.8,2.3
		C78,44.8,77.6,46.4,77.6,48.3 M80.1,56.4c-1.8,0-3.2-0.7-4.2-2c-1-1.3-1.6-2.9-1.6-4.6c0-3.4,0.7-6,2.2-7.8
		c1.4-1.8,3.3-2.6,5.6-2.6c1.1,0,2,0.3,2.6,0.9c0.7,0.6,1,1.4,1,2.4c0,1.9-0.8,3.5-2.4,4.7c-1.6,1.3-3.5,1.9-5.8,2
		c0.1,1.2,0.5,2.3,1.3,3.2c0.7,0.9,1.5,1.3,2.5,1.3c0.9,0,1.8-0.2,2.5-0.7c0.8-0.4,1.4-1.1,2.1-1.9c1.3-1.7,2.5-3.7,3.4-5.9
		c0.2-0.6,0.4-1,0.6-1.2c0.1-0.3,0.3-0.4,0.5-0.4c0.2,0,0.3,0.1,0.3,0.4c0,1.6-1,3.9-2.9,7.1C85.7,54.7,83.1,56.4,80.1,56.4"/>
	<path class="st0" d="M104,40.8c-0.3,0-0.4,0.5-0.4,1.6c0,1.1,0.5,2.1,1.5,3c0-0.2,0-0.4,0-0.7C105.1,42,104.7,40.8,104,40.8
		 M107.8,46.4c1.3,0,2.5-0.6,3.7-1.7c0.6-0.6,1-0.8,1.2-0.8c0.2,0,0.3,0.2,0.3,0.5c0,0.3-0.2,0.7-0.6,1.1c-1.7,1.9-3.8,2.8-6.3,2.8
		c-0.5,2.3-1.3,4.3-2.4,5.8c-1.1,1.6-2.4,2.3-4.1,2.3c-1.6,0-2.8-1-3.5-2.9c-1.3,1.9-2.6,2.9-4,2.9c-2.6,0-3.9-2.5-3.9-7.5
		c0-3.5,0.3-5.9,1-7.1c0.1-0.2,0.6-0.6,1.4-1.1c0.8-0.5,1.4-0.8,1.7-0.8c0.5,0,0.7,0.3,0.7,0.8c-0.1,1.5-0.5,3.2-1.3,5.2
		c-0.2,0.4-0.3,1.3-0.3,2.7c0,1.4,0.2,2.7,0.5,3.8c0.3,1.1,0.8,1.6,1.4,1.6c0.6,0,1.4-0.8,2.3-2.3c-0.2-0.8-0.2-1.6-0.2-2.5
		c0-0.9,0.1-1.9,0.3-2.9s0.6-2.1,1.1-3.1c0.6-1,1.2-1.6,2-1.6c0.3,0,0.4,0.1,0.5,0.2c0.1,0.2,0.2,0.5,0.2,1.1c0,1.6-0.4,3.6-1.3,6
		c0.1,1.4,0.4,2.6,1,3.5c0.5,1,1.1,1.4,1.7,1.4c0.9,0,1.7-0.6,2.3-1.8c0.6-1.2,1.1-2.6,1.5-4.3c-1.2-0.3-2.1-0.9-2.7-1.8
		c-0.6-0.9-0.9-1.9-0.9-3c0-1.1,0.3-2.1,0.8-3c0.6-0.8,1.4-1.3,2.4-1.3c1.4,0,2.2,1.6,2.2,4.7c0,0.8,0,1.7-0.1,2.5
		C106.9,46.3,107.3,46.4,107.8,46.4"/>
	<path class="st0" d="M111.8,33.1c0-0.6,0.3-1.1,0.9-1.5c0.6-0.4,1.1-0.6,1.6-0.6c0.8,0,1.3,0.5,1.3,1.5c0,1-0.3,1.8-0.8,2.5
		c-0.5,0.7-1.2,1.1-2.1,1.1C112.1,36.1,111.8,35.1,111.8,33.1 M113.2,56.4c-1.2,0-2.2-0.3-2.8-0.8c-0.2-0.2-0.3-1-0.3-2.4
		c0-1.4,0.1-3.6,0.3-6.8c0.2-3.2,0.4-4.9,0.5-5.1c0.2-0.3,0.6-0.7,1.5-1.4c0.8-0.7,1.5-1,1.9-1s0.7,0.6,0.7,1.8
		c0,0.3-0.1,0.9-0.3,1.8c-0.2,0.9-0.4,1.6-0.6,2c-0.4,1-0.6,3.8-0.6,8.2c0,0.8,0.1,1.3,0.3,1.3c0.5,0,1.3-0.7,2.2-2
		c0.9-1.3,1.9-3,2.8-5c0.9-2,1.5-3.1,1.7-3.1c0.2,0,0.3,0.1,0.3,0.4c0,0.9-0.5,2.3-1.4,4.2C117,53.8,114.9,56.4,113.2,56.4"/>
	<path class="st0" d="M121.6,48.3c1.9-0.3,3.2-0.9,4.1-1.8c0.9-0.9,1.3-2,1.3-3.4s-0.5-2.1-1.4-2.1c-1.1,0-2,0.8-2.8,2.3
		C122.1,44.8,121.6,46.4,121.6,48.3 M124.1,56.4c-1.8,0-3.2-0.7-4.2-2c-1-1.3-1.6-2.9-1.6-4.6c0-3.4,0.7-6,2.2-7.8
		c1.4-1.8,3.3-2.6,5.6-2.6c1.1,0,2,0.3,2.6,0.9c0.7,0.6,1,1.4,1,2.4c0,1.9-0.8,3.5-2.4,4.7c-1.6,1.3-3.5,1.9-5.8,2
		c0.1,1.2,0.5,2.3,1.3,3.2c0.7,0.9,1.5,1.3,2.5,1.3c0.9,0,1.8-0.2,2.5-0.7c0.8-0.4,1.4-1.1,2.1-1.9c1.3-1.7,2.5-3.7,3.4-5.9
		c0.3-0.6,0.4-1,0.6-1.2c0.1-0.3,0.3-0.4,0.5-0.4c0.2,0,0.3,0.1,0.3,0.4c0,1.6-1,3.9-2.9,7.1C129.7,54.7,127.1,56.4,124.1,56.4"/>
	<path class="st0" d="M57.9,69v-5.3c0-0.3,0.2-0.5,0.5-0.5s0.5,0.2,0.5,0.5v4.8h2.4c0.3,0,0.5,0.2,0.5,0.5c0,0.3-0.2,0.5-0.5,0.5
		h-2.9h0h0C58.1,69.5,57.9,69.3,57.9,69"/>
	<path class="st0" d="M63.8,69v-5.3c0-0.3,0.2-0.5,0.5-0.5h0h0h2.9c0.3,0,0.5,0.2,0.5,0.5c0,0.3-0.2,0.5-0.5,0.5h-2.4v1.6h2.1
		c0.3,0,0.5,0.2,0.5,0.5c0,0.3-0.2,0.5-0.5,0.5h-2.1v1.6h2.4c0.3,0,0.5,0.2,0.5,0.5c0,0.3-0.2,0.5-0.5,0.5h-2.9c0,0,0,0,0,0l0,0
		C64,69.5,63.8,69.3,63.8,69"/>
	<path class="st0" d="M70,69v-5.3c0-0.3,0.2-0.5,0.5-0.5h0h0h2.9c0.3,0,0.5,0.2,0.5,0.5c0,0.3-0.2,0.5-0.5,0.5H71v1.6H73
		c0.3,0,0.5,0.2,0.5,0.5c0,0.3-0.2,0.5-0.5,0.5H71v1.6h2.4c0.3,0,0.5,0.2,0.5,0.5c0,0.3-0.2,0.5-0.5,0.5h-2.9c0,0,0,0,0,0l0,0
		C70.2,69.5,70,69.3,70,69"/>
	<path class="st0" d="M76.2,69v-5.3c0-0.3,0.2-0.5,0.5-0.5h0h0h2.9c0.3,0,0.5,0.2,0.5,0.5c0,0.3-0.2,0.5-0.5,0.5h-2.4v1.6h2.1
		c0.3,0,0.5,0.2,0.5,0.5c0,0.3-0.2,0.5-0.5,0.5h-2.1V69c0,0.3-0.2,0.5-0.5,0.5S76.2,69.3,76.2,69"/>
	<path class="st0" d="M83.4,68.5h1.1c0.5,0,0.9-0.4,0.9-0.9c0-0.5-0.4-0.9-0.9-0.9h-1.1V68.5z M83.4,65.7h0.8c0.4,0,0.7-0.3,0.7-0.7
		c0-0.4-0.3-0.7-0.7-0.7h-0.8V65.7z M82.4,69v-5.3c0-0.3,0.2-0.5,0.5-0.5h0h0h1.2c0.9,0,1.7,0.8,1.7,1.7c0,0.4-0.1,0.7-0.3,1
		c0.5,0.3,0.9,0.9,0.9,1.6c0,1.1-0.9,1.9-1.9,1.9H83c0,0,0,0,0,0c0,0,0,0,0,0C82.7,69.5,82.4,69.3,82.4,69"/>
	<path class="st0" d="M93.4,66.3c0-0.6-0.2-1.2-0.6-1.6c-0.4-0.4-0.9-0.6-1.4-0.6c-0.6,0-1.1,0.2-1.4,0.6c-0.4,0.4-0.6,1-0.6,1.6
		c0,0.6,0.2,1.2,0.6,1.6c0.4,0.4,0.9,0.6,1.4,0.6c0.5,0,1-0.2,1.4-0.6C93.2,67.4,93.4,66.9,93.4,66.3 M93.6,64
		c0.6,0.6,0.9,1.4,0.9,2.3c0,0.9-0.3,1.7-0.9,2.3c-0.5,0.6-1.3,1-2.1,1c-0.9,0-1.6-0.4-2.2-1c-0.6-0.6-0.9-1.4-0.9-2.3
		c0-0.9,0.3-1.7,0.9-2.3c0.5-0.6,1.3-1,2.2-1C92.2,63.1,93,63.4,93.6,64"/>
	<path class="st0" d="M97.1,69v-5.3c0-0.3,0.2-0.5,0.5-0.5h0h0h2.9c0.3,0,0.5,0.2,0.5,0.5c0,0.3-0.2,0.5-0.5,0.5h-2.4v1.6h2.1
		c0.3,0,0.5,0.2,0.5,0.5c0,0.3-0.2,0.5-0.5,0.5h-2.1v1.6h2.4c0.3,0,0.5,0.2,0.5,0.5c0,0.3-0.2,0.5-0.5,0.5h-2.9c0,0,0,0,0,0l0,0
		C97.3,69.5,97.1,69.3,97.1,69"/>
	<path class="st0" d="M106.3,65.2c0-0.5-0.4-0.9-0.9-0.9h-1.1v1.8h1.1C105.9,66.1,106.3,65.7,106.3,65.2 M107.6,68.7
		c0.1,0.3-0.1,0.5-0.3,0.6c0,0-0.1,0-0.2,0h0c-0.1,0-0.2,0-0.3-0.1c-0.1-0.1-0.2-0.2-0.3-0.3c-0.1-0.3-0.2-0.6-0.2-1.1
		c0-0.2,0-0.3-0.1-0.4c-0.1-0.1-0.2-0.2-0.3-0.3c-0.2-0.1-0.4-0.2-0.5-0.2h-1.1V69c0,0.3-0.2,0.5-0.5,0.5c-0.3,0-0.5-0.2-0.5-0.5
		v-5.3c0-0.3,0.2-0.5,0.5-0.5h0h1.6c1.1,0,1.9,0.9,1.9,1.9c0,0.6-0.3,1.1-0.7,1.5c0.1,0.1,0.2,0.2,0.3,0.3c0.2,0.3,0.3,0.6,0.3,1
		c0,0.3,0,0.4,0,0.5C107.4,68.5,107.5,68.6,107.6,68.7"/>
	<path class="st0" d="M110.9,68.5h0.6c1.2,0,2.1-1,2.1-2.1c0-1.2-0.9-2.1-2.1-2.1h-0.6V68.5z M109.9,69v-5.3c0-0.3,0.2-0.5,0.5-0.5
		h1.1c1.7,0,3.1,1.4,3.1,3.1c0,1.7-1.4,3.1-3.1,3.1h-1.1C110.1,69.5,109.9,69.3,109.9,69"/>
	<path class="st0" d="M116.8,69v-5.3c0-0.3,0.2-0.5,0.5-0.5h0h0h2.9c0.3,0,0.5,0.2,0.5,0.5c0,0.3-0.2,0.5-0.5,0.5h-2.4v1.6h2.1
		c0.3,0,0.5,0.2,0.5,0.5c0,0.3-0.2,0.5-0.5,0.5h-2.1v1.6h2.4c0.3,0,0.5,0.2,0.5,0.5c0,0.3-0.2,0.5-0.5,0.5h-2.9c0,0,0,0,0,0l0,0
		C117,69.5,116.8,69.3,116.8,69"/>
	<path class="st0" d="M126,65.2c0-0.5-0.4-0.9-0.9-0.9H124v1.8h1.1C125.6,66.1,126,65.7,126,65.2 M127.3,68.7
		c0.1,0.3-0.1,0.5-0.3,0.6c0,0-0.1,0-0.2,0h0c-0.1,0-0.2,0-0.3-0.1c-0.1-0.1-0.2-0.2-0.3-0.3c-0.1-0.3-0.2-0.6-0.2-1.1
		c0-0.2,0-0.3-0.1-0.4c-0.1-0.1-0.2-0.2-0.3-0.3c-0.2-0.1-0.4-0.2-0.5-0.2H124V69c0,0.3-0.2,0.5-0.5,0.5S123,69.3,123,69v-5.3
		c0-0.3,0.2-0.5,0.5-0.5h0h1.6c1.1,0,1.9,0.9,1.9,1.9c0,0.6-0.3,1.1-0.7,1.5c0.1,0.1,0.2,0.2,0.3,0.3c0.2,0.3,0.3,0.6,0.3,1
		c0,0.3,0,0.4,0,0.5C127.1,68.5,127.2,68.6,127.3,68.7"/>
	<path class="st0" d="M129.7,63.7c0-0.3,0.2-0.5,0.5-0.5c0.3,0,0.5,0.2,0.5,0.5V69c0,0.3-0.2,0.5-0.5,0.5c-0.3,0-0.5-0.2-0.5-0.5
		V63.7z"/>
	<path class="st0" d="M133.7,67.7c0.2,0.5,0.6,0.8,1.2,0.8c0.7,0,1.2-0.6,1.2-1.2v-3.5c0-0.3,0.2-0.5,0.5-0.5c0.3,0,0.5,0.2,0.5,0.5
		v3.5c0,1.2-1,2.2-2.2,2.2c-1,0-1.8-0.6-2.1-1.5c-0.1-0.3,0.1-0.5,0.3-0.6C133.3,67.3,133.6,67.4,133.7,67.7"/>
	<path class="st1" d="M147.3,20.3c0,0.5-0.4,0.9-0.9,0.9s-0.9-0.4-0.9-0.9c0-0.5,0.4-0.9,0.9-0.9S147.3,19.8,147.3,20.3"/>
</g>
</svg>
