<?xml version="1.0" encoding="utf-8"?>
<!-- Generator: Adobe Illustrator 22.0.1, SVG Export Plug-In . SVG Version: 6.00 Build 0)  -->
<svg version="1.1" id="Laag_1" xmlns="http://www.w3.org/2000/svg" xmlns:xlink="http://www.w3.org/1999/xlink" x="0px" y="0px"
	 viewBox="0 0 205 85" style="enable-background:new 0 0 205 85;" xml:space="preserve">
<style type="text/css">
	.st0{clip-path:url(#SVGID_2_);fill:#C2C92F;}
	.st1{clip-path:url(#SVGID_2_);fill:#FFFFFF;}
</style>
<g>
	<defs>
		<rect id="SVGID_1_" x="22.9" y="15" width="159.2" height="55"/>
	</defs>
	<clipPath id="SVGID_2_">
		<use xlink:href="#SVGID_1_"  style="overflow:visible;"/>
	</clipPath>
	<path class="st0" d="M182,53.9c-0.5,2.3-2.7,1-3.4-1c-0.7,2-2.9,3.3-3.4,1c-0.5-2.3,3.4-8.6,3.4-8.6S182.5,51.6,182,53.9"/>
	<path class="st0" d="M180.3,40.9c-1.2,0.5-28,1-29.4,1.3c-0.4,4.6-0.6,8.1-0.6,10.4c0,1.3,0.2,1.9,0.6,1.9c0.6,0,1.3-0.7,2.3-2
		c0.9-1.3,1.9-3,2.8-5c0.9-2.1,1.5-3.1,1.7-3.1c0.2,0,0.3,0.1,0.3,0.4c0,0.9-0.5,2.3-1.4,4.2c-2.5,5.3-4.6,7.9-6.3,7.9
		c-1.7,0-2.7-0.2-3-0.6c-0.3-0.4-0.4-1.8-0.4-4.1c0-2.3,0.2-5.6,0.7-10c-1.6-0.3-2.4-1-2.5-1.9c0-0.5,0.3-0.8,1-0.8
		c0.7,0,1.2,0.1,1.7,0.4c0.3-2.3,0.6-4.6,1-6.9c0.1-0.6,0.4-1.2,0.9-1.7c0.5-0.5,1-0.8,1.5-0.8c0.4,0,0.6,0.6,0.6,1.9
		c0,0.6-0.2,3.4-0.7,8.3c0.8-0.2,28-0.9,29.1-0.9C180.5,39.8,180.8,40.7,180.3,40.9"/>
	<path class="st0" d="M38.1,24.1l0.2-1.8c-0.1-2.5-1.3-3.8-3.4-3.8c-1.3,0-2.4,0.7-3.3,2c-0.9,1.3-1.4,2.7-1.4,4.2
		c0,1.5,0.4,2.8,1.2,3.9c0.8,1.1,1.8,2.1,3,3c1.2,0.9,2.4,1.8,3.5,2.8c1.2,1,2.2,2.3,3,3.9c0.8,1.6,1.2,3.4,1.2,5.4
		c0,4.2-1.1,7.5-3.3,9.9c-2.2,2.4-4.6,3.6-7.1,3.6c-2.5,0-4.7-0.7-6.4-2.1c-1.7-1.4-2.5-3.5-2.5-6.3c0-1.5,0.3-2.9,1-4.1
		c0.7-1.2,1.7-1.8,3-1.8c0.5,0,1,0.2,1.4,0.6c0.4,0.4,0.7,1,0.8,1.7c0,0.7-0.3,1.1-0.8,1.1c-1.1,0-1.6,0.7-1.6,2
		c0,1.5,0.5,3,1.5,4.2c1,1.3,2.3,1.9,4.1,1.9c1.7,0,3.2-0.9,4.5-2.7c1.2-1.8,1.9-3.9,1.9-6.5c0-1.7-0.4-3.2-1.3-4.6
		c-0.8-1.4-1.9-2.5-3.1-3.5c-1.2-1-2.4-1.9-3.6-2.9c-1.2-1-2.2-2.2-3.1-3.6c-0.8-1.4-1.3-3-1.3-4.8c0-3.1,0.9-5.7,2.7-7.5
		c1.8-1.9,3.9-2.8,6.2-2.8c1.5,0,2.9,0.5,4.2,1.4c1.3,0.9,1.9,2.4,1.9,4.3c0,1.1-0.2,2.1-0.6,2.8c-0.4,0.8-0.9,1.1-1.5,1.1
		C38.4,25.2,38.1,24.9,38.1,24.1"/>
	<path class="st0" d="M160.3,15c0,0-5.4,0.1-6.1,6.3c0,0-1.7,1-1.8,2.5c0,0,3.7-0.2,3.7,2.6c0,2.9-1.9,11.9,7.9,15.3
		c2.7,0.9,7.9-1.2,15.3,4.6c0,0-1.2-1.6-5-12.4l-1.5-3.8c-0.7-1.7-1.7-4-1.7-4S166.6,14.3,160.3,15"/>
	<path class="st0" d="M44.9,52.6l0.3-5.3c0-3.4,0.2-5.2,0.5-5.5c0.3-0.3,0.9-0.8,1.7-1.4c0.8-0.6,1.4-0.9,1.7-0.9s0.6,0.1,0.7,0.2
		c0.1,0.1,0.1,0.4,0.1,0.8c0,1.4-0.3,2.7-0.9,4.1c-0.5,2.9-0.7,5.3-0.7,7.1c0,1.9,0.3,2.8,0.9,2.8c0.7,0,1.6-0.6,2.5-1.9
		c1-1.3,1.9-3.1,2.9-5.6c0.3-3.1,0.5-4.8,0.7-5.1c0.2-0.2,0.6-0.7,1.3-1.4c0.7-0.7,1.3-1,1.7-1c0.5,0,0.7,0.6,0.7,1.8
		c0,0.3-0.1,0.9-0.3,1.8c-0.2,0.9-0.4,1.6-0.6,2c-0.3,0.9-0.5,3.6-0.5,8.2c0,0.8,0.1,1.3,0.3,1.3c0.5,0,1.3-0.7,2.2-2
		c0.9-1.3,1.9-3,2.8-5c0.9-2,1.5-3.1,1.7-3.1s0.3,0.1,0.3,0.4c0,0.9-0.5,2.3-1.4,4.2c-2.5,5.3-4.6,7.9-6.3,7.9
		c-1.2,0-2.2-0.3-2.8-0.8c-0.2-0.2-0.3-0.9-0.3-2c0-1.1,0-2.4,0.1-3.8c-1,2.1-2,3.8-3,4.9c-1,1.1-2.1,1.7-3.4,1.7
		c-1.2,0-2.1-0.3-2.5-1C45.1,55.3,44.9,54.1,44.9,52.6"/>
	<path class="st0" d="M66.1,51.5c-1.3,1.3-1.9,2.3-1.9,3c0,0.8,0.4,1.2,1.2,1.2c0.5,0,0.9-0.2,1.2-0.6C67.3,54.2,67.1,53,66.1,51.5
		 M69.1,42.2l0.1-0.7c0-0.6-0.3-0.8-1-0.8c-0.6,0-1.3,0.4-1.9,1.3c-0.6,0.8-0.9,1.5-0.9,2.1c0,0.5,0,1,0.1,1.3
		c0.1,0.3,0.1,0.6,0.2,0.8c0.1,0.2,0.2,0.4,0.4,0.7c0.2,0.3,0.3,0.5,0.4,0.6l0.5,0.7c0.2,0.3,0.4,0.5,0.5,0.6
		c1.6-1.4,3.6-2.9,5.9-4.5c0.1-0.1,0.3-0.1,0.4-0.1c0.3,0,0.5,0.2,0.5,0.5s-0.1,0.6-0.4,0.8c-2,1.3-3.9,2.7-5.7,4.2
		c0.7,1,1,2.1,1,3.3s-0.5,2.2-1.4,3.1c-0.9,0.8-2.1,1.3-3.5,1.3s-2.1-0.7-2.1-2c0-1,1-2.5,3.1-4.5c-0.2-0.2-0.4-0.5-0.8-0.9
		c-0.4-0.4-0.7-0.8-0.9-1c-0.2-0.3-0.4-0.6-0.7-1c-0.5-0.8-0.8-1.6-0.8-2.5c0-1.9,0.6-3.4,1.8-4.5c1.2-1.1,2.5-1.7,3.8-1.7
		c0.8,0,1.5,0.2,2,0.7c0.5,0.5,0.7,0.9,0.7,1.4c0,1.1-0.3,1.6-0.8,1.6C69.3,42.6,69.1,42.5,69.1,42.2"/>
	<path class="st0" d="M87.2,58.3l1.3-0.1c0.3,0,0.4,0.1,0.4,0.4c0,0.4-0.3,0.8-0.9,1c-0.6,0.2-1.3,0.3-2,0.3c-1.4,0-2.6-0.6-3.6-1.7
		c-1-1.1-2.3-3.2-4-6.3c-0.4-0.7-0.6-1.2-0.6-1.5c0-0.5,0.7-1,2-1.7c2.1-1.1,3.2-2.5,3.2-4.2c0-0.5-0.2-0.9-0.5-1.2
		c-0.3-0.3-0.8-0.5-1.3-0.5c-0.8,0-1.7,0.9-2.7,2.7c-1,1.8-1.7,3.4-2.1,5c-0.4,1.6-0.5,3.2-0.5,5c0,0.9-0.3,1.3-0.8,1.3
		c-0.7,0-1.4-0.1-2.1-0.3c-0.7-0.2-1-0.5-1-0.8c0-0.3,0.1-1.8,0.4-4.5c0.3-2.7,0.4-4.6,0.4-5.7c0.1-6.4,0.5-11.3,1.1-14.7
		c0.1-0.3,0.5-0.8,1.3-1.5c0.8-0.7,1.4-1,1.9-1c0.5,0,0.7,0.6,0.7,1.8c0,1.2-0.3,3.7-0.8,7.6c-0.5,3.9-0.8,7.4-0.9,10.6
		c0.6-2,1.5-3.9,2.7-5.7c1.2-1.8,2.5-2.7,3.8-2.7c2.1,0,3.2,1,3.2,3.1c0,1.4-0.4,2.6-1.2,3.8c-0.8,1.1-1.9,2-3.3,2.7
		c-0.3,0.1-0.4,0.3-0.4,0.4c0,0.2,0,0.3,0.1,0.5c2,3.5,3.7,5.9,5.1,7.4C86.3,58.1,86.7,58.3,87.2,58.3"/>
	<path class="st0" d="M91.4,48.8c1.9-0.3,3.2-0.9,4.1-1.8c0.9-0.9,1.3-2,1.3-3.4s-0.5-2.1-1.4-2.1c-1.1,0-2,0.8-2.8,2.3
		C91.9,45.3,91.5,46.9,91.4,48.8 M93.9,56.9c-1.8,0-3.2-0.7-4.2-2c-1-1.3-1.6-2.9-1.6-4.6c0-3.4,0.7-6,2.2-7.8
		c1.4-1.8,3.3-2.6,5.6-2.6c1.1,0,2,0.3,2.6,0.9c0.7,0.6,1,1.4,1,2.4c0,1.9-0.8,3.5-2.4,4.7c-1.6,1.3-3.5,1.9-5.8,2
		c0.1,1.2,0.5,2.3,1.3,3.2c0.7,0.9,1.5,1.3,2.5,1.3c0.9,0,1.8-0.2,2.5-0.7c0.8-0.4,1.4-1.1,2.1-1.9c1.3-1.7,2.5-3.7,3.4-5.9
		c0.2-0.6,0.4-1,0.6-1.2c0.1-0.3,0.3-0.4,0.5-0.4c0.2,0,0.3,0.1,0.3,0.4c0,1.6-1,3.9-2.9,7.1C99.5,55.2,97,56.9,93.9,56.9"/>
	<path class="st0" d="M117.9,41.3c-0.3,0-0.4,0.5-0.4,1.6c0,1.1,0.5,2.1,1.5,3c0-0.2,0-0.4,0-0.7C119,42.5,118.6,41.3,117.9,41.3
		 M121.6,46.9c1.3,0,2.5-0.6,3.7-1.7c0.6-0.6,1-0.8,1.2-0.8c0.2,0,0.3,0.2,0.3,0.5c0,0.3-0.2,0.7-0.6,1.1c-1.7,1.9-3.8,2.8-6.3,2.8
		c-0.5,2.3-1.3,4.3-2.4,5.8s-2.4,2.3-4.1,2.3c-1.6,0-2.8-1-3.5-2.9c-1.3,1.9-2.6,2.9-4,2.9c-2.6,0-3.9-2.5-3.9-7.5
		c0-3.5,0.3-5.9,1-7.1c0.1-0.2,0.6-0.6,1.4-1.1c0.8-0.5,1.4-0.8,1.7-0.8c0.5,0,0.7,0.3,0.7,0.8c-0.1,1.5-0.5,3.2-1.3,5.2
		c-0.2,0.4-0.3,1.3-0.3,2.7c0,1.4,0.2,2.7,0.5,3.8c0.3,1.1,0.8,1.6,1.4,1.6c0.6,0,1.4-0.8,2.3-2.3c-0.2-0.8-0.2-1.6-0.2-2.5
		c0-0.9,0.1-1.9,0.3-2.9c0.2-1,0.6-2.1,1.1-3.1c0.6-1,1.2-1.6,2-1.6c0.3,0,0.4,0.1,0.5,0.2c0.1,0.2,0.2,0.5,0.2,1.1
		c0,1.6-0.4,3.6-1.3,6c0.1,1.4,0.4,2.6,1,3.5c0.5,1,1.1,1.4,1.7,1.4c0.9,0,1.7-0.6,2.3-1.8c0.6-1.2,1.1-2.6,1.5-4.3
		c-1.2-0.3-2.1-0.9-2.7-1.8c-0.6-0.9-0.9-1.9-0.9-3c0-1.1,0.3-2.1,0.8-3c0.6-0.8,1.4-1.3,2.4-1.3c1.4,0,2.2,1.6,2.2,4.7
		c0,0.8,0,1.7-0.1,2.5C120.7,46.8,121.2,46.9,121.6,46.9"/>
	<path class="st0" d="M125.7,33.6c0-0.6,0.3-1.1,0.9-1.5c0.6-0.4,1.1-0.6,1.6-0.6c0.8,0,1.3,0.5,1.3,1.5c0,1-0.3,1.8-0.8,2.5
		c-0.5,0.7-1.2,1.1-2.1,1.1C126,36.6,125.7,35.6,125.7,33.6 M127,56.9c-1.2,0-2.2-0.3-2.8-0.8c-0.2-0.2-0.3-1-0.3-2.4
		c0-1.4,0.1-3.6,0.3-6.8c0.2-3.2,0.4-4.9,0.5-5.1c0.2-0.3,0.6-0.7,1.5-1.4c0.8-0.7,1.5-1,1.9-1s0.7,0.6,0.7,1.8
		c0,0.3-0.1,0.9-0.3,1.8c-0.2,0.9-0.4,1.6-0.6,2c-0.4,1-0.6,3.8-0.6,8.2c0,0.8,0.1,1.3,0.3,1.3c0.5,0,1.3-0.7,2.2-2
		c0.9-1.3,1.9-3,2.8-5c0.9-2,1.5-3.1,1.7-3.1c0.2,0,0.3,0.1,0.3,0.4c0,0.9-0.5,2.3-1.4,4.2C130.8,54.3,128.7,56.9,127,56.9"/>
	<path class="st0" d="M135.4,48.8c1.9-0.3,3.2-0.9,4.1-1.8c0.9-0.9,1.3-2,1.3-3.4s-0.5-2.1-1.4-2.1c-1.1,0-2,0.8-2.8,2.3
		C135.9,45.3,135.5,46.9,135.4,48.8 M137.9,56.9c-1.8,0-3.2-0.7-4.2-2c-1-1.3-1.6-2.9-1.6-4.6c0-3.4,0.7-6,2.2-7.8
		c1.4-1.8,3.3-2.6,5.6-2.6c1.1,0,2,0.3,2.6,0.9c0.7,0.6,1,1.4,1,2.4c0,1.9-0.8,3.5-2.4,4.7c-1.6,1.3-3.5,1.9-5.8,2
		c0.1,1.2,0.5,2.3,1.3,3.2c0.7,0.9,1.5,1.3,2.5,1.3c0.9,0,1.8-0.2,2.5-0.7c0.8-0.4,1.4-1.1,2.1-1.9c1.3-1.7,2.5-3.7,3.4-5.9
		c0.3-0.6,0.4-1,0.6-1.2s0.3-0.4,0.5-0.4c0.2,0,0.3,0.1,0.3,0.4c0,1.6-1,3.9-2.9,7.1C143.6,55.2,141,56.9,137.9,56.9"/>
	<path class="st1" d="M71.7,69.5v-5.3c0-0.3,0.2-0.5,0.5-0.5c0.3,0,0.5,0.2,0.5,0.5V69h2.4c0.3,0,0.5,0.2,0.5,0.5
		c0,0.3-0.2,0.5-0.5,0.5h-2.9h0h0C72,70,71.7,69.8,71.7,69.5"/>
	<path class="st1" d="M77.7,69.5v-5.3c0-0.3,0.2-0.5,0.5-0.5h0h0h2.9c0.3,0,0.5,0.2,0.5,0.5c0,0.3-0.2,0.5-0.5,0.5h-2.4v1.6h2.1
		c0.3,0,0.5,0.2,0.5,0.5c0,0.3-0.2,0.5-0.5,0.5h-2.1V69h2.4c0.3,0,0.5,0.2,0.5,0.5c0,0.3-0.2,0.5-0.5,0.5h-2.9c0,0,0,0,0,0l0,0
		C77.9,70,77.7,69.8,77.7,69.5"/>
	<path class="st1" d="M83.8,69.5v-5.3c0-0.3,0.2-0.5,0.5-0.5h0h0h2.9c0.3,0,0.5,0.2,0.5,0.5c0,0.3-0.2,0.5-0.5,0.5h-2.4v1.6h2.1
		c0.3,0,0.5,0.2,0.5,0.5c0,0.3-0.2,0.5-0.5,0.5h-2.1V69h2.4c0.3,0,0.5,0.2,0.5,0.5c0,0.3-0.2,0.5-0.5,0.5h-2.9c0,0,0,0,0,0l0,0
		C84.1,70,83.8,69.8,83.8,69.5"/>
	<path class="st1" d="M90,69.5v-5.3c0-0.3,0.2-0.5,0.5-0.5h0h0h2.9c0.3,0,0.5,0.2,0.5,0.5c0,0.3-0.2,0.5-0.5,0.5H91v1.6h2.1
		c0.3,0,0.5,0.2,0.5,0.5c0,0.3-0.2,0.5-0.5,0.5H91v2.1c0,0.3-0.2,0.5-0.5,0.5S90,69.8,90,69.5"/>
	<path class="st1" d="M97.3,69h1.1c0.5,0,0.9-0.4,0.9-0.9c0-0.5-0.4-0.9-0.9-0.9h-1.1V69z M97.3,66.2h0.8c0.4,0,0.7-0.3,0.7-0.7
		c0-0.4-0.3-0.7-0.7-0.7h-0.8V66.2z M96.3,69.5v-5.3c0-0.3,0.2-0.5,0.5-0.5h0h0h1.2c0.9,0,1.7,0.8,1.7,1.7c0,0.4-0.1,0.7-0.3,1
		c0.5,0.3,0.9,0.9,0.9,1.6c0,1.1-0.9,1.9-1.9,1.9h-1.6c0,0,0,0,0,0c0,0,0,0,0,0C96.5,70,96.3,69.8,96.3,69.5"/>
	<path class="st1" d="M107.3,66.8c0-0.6-0.2-1.2-0.6-1.6c-0.4-0.4-0.9-0.6-1.4-0.6c-0.6,0-1.1,0.2-1.4,0.6c-0.4,0.4-0.6,1-0.6,1.6
		c0,0.6,0.2,1.2,0.6,1.6c0.4,0.4,0.9,0.6,1.4,0.6c0.5,0,1-0.2,1.4-0.6C107.1,67.9,107.3,67.4,107.3,66.8 M107.4,64.5
		c0.6,0.6,0.9,1.4,0.9,2.3c0,0.9-0.3,1.7-0.9,2.3c-0.5,0.6-1.3,1-2.1,1c-0.9,0-1.6-0.4-2.2-1c-0.6-0.6-0.9-1.4-0.9-2.3
		c0-0.9,0.3-1.7,0.9-2.3c0.5-0.6,1.3-1,2.2-1C106.1,63.6,106.9,63.9,107.4,64.5"/>
	<path class="st1" d="M111,69.5v-5.3c0-0.3,0.2-0.5,0.5-0.5h0h0h2.9c0.3,0,0.5,0.2,0.5,0.5c0,0.3-0.2,0.5-0.5,0.5H112v1.6h2.1
		c0.3,0,0.5,0.2,0.5,0.5c0,0.3-0.2,0.5-0.5,0.5H112V69h2.4c0.3,0,0.5,0.2,0.5,0.5c0,0.3-0.2,0.5-0.5,0.5h-2.9c0,0,0,0,0,0l0,0
		C111.2,70,111,69.8,111,69.5"/>
	<path class="st1" d="M120.2,65.7c0-0.5-0.4-0.9-0.9-0.9h-1.1v1.8h1.1C119.8,66.6,120.2,66.2,120.2,65.7 M121.5,69.2
		c0.1,0.3-0.1,0.5-0.3,0.6c0,0-0.1,0-0.2,0h0c-0.1,0-0.2,0-0.3-0.1c-0.1-0.1-0.2-0.2-0.3-0.3c-0.1-0.3-0.2-0.6-0.2-1.1
		c0-0.2,0-0.3-0.1-0.4c-0.1-0.1-0.2-0.2-0.3-0.3c-0.2-0.1-0.4-0.2-0.5-0.2h-1.1v1.9c0,0.3-0.2,0.5-0.5,0.5s-0.5-0.2-0.5-0.5v-5.3
		c0-0.3,0.2-0.5,0.5-0.5h0h1.6c1.1,0,1.9,0.9,1.9,1.9c0,0.6-0.3,1.1-0.7,1.5c0.1,0.1,0.2,0.2,0.3,0.3c0.2,0.3,0.3,0.6,0.3,1
		c0,0.3,0,0.4,0,0.5C121.3,69,121.4,69.1,121.5,69.2"/>
	<path class="st1" d="M124.8,69h0.6c1.2,0,2.1-1,2.1-2.1c0-1.2-0.9-2.1-2.1-2.1h-0.6V69z M123.8,69.5v-5.3c0-0.3,0.2-0.5,0.5-0.5
		h1.1c1.7,0,3.1,1.4,3.1,3.1c0,1.7-1.4,3.1-3.1,3.1h-1.1C124,70,123.8,69.8,123.8,69.5"/>
	<path class="st1" d="M130.7,69.5v-5.3c0-0.3,0.2-0.5,0.5-0.5h0h0h2.9c0.3,0,0.5,0.2,0.5,0.5c0,0.3-0.2,0.5-0.5,0.5h-2.4v1.6h2.1
		c0.3,0,0.5,0.2,0.5,0.5c0,0.3-0.2,0.5-0.5,0.5h-2.1V69h2.4c0.3,0,0.5,0.2,0.5,0.5c0,0.3-0.2,0.5-0.5,0.5h-2.9c0,0,0,0,0,0l0,0
		C130.9,70,130.7,69.8,130.7,69.5"/>
	<path class="st1" d="M139.9,65.7c0-0.5-0.4-0.9-0.9-0.9h-1.1v1.8h1.1C139.5,66.6,139.9,66.2,139.9,65.7 M141.1,69.2
		c0.1,0.3-0.1,0.5-0.3,0.6c0,0-0.1,0-0.2,0h0c-0.1,0-0.2,0-0.3-0.1c-0.1-0.1-0.2-0.2-0.3-0.3c-0.1-0.3-0.2-0.6-0.2-1.1
		c0-0.2,0-0.3-0.1-0.4c-0.1-0.1-0.2-0.2-0.3-0.3c-0.2-0.1-0.4-0.2-0.5-0.2h-1.1v1.9c0,0.3-0.2,0.5-0.5,0.5c-0.3,0-0.5-0.2-0.5-0.5
		v-5.3c0-0.3,0.2-0.5,0.5-0.5h0h1.6c1.1,0,1.9,0.9,1.9,1.9c0,0.6-0.3,1.1-0.7,1.5c0.1,0.1,0.2,0.2,0.3,0.3c0.2,0.3,0.3,0.6,0.3,1
		c0,0.3,0,0.4,0,0.5C141,69,141.1,69.1,141.1,69.2"/>
	<path class="st1" d="M143.5,64.2c0-0.3,0.2-0.5,0.5-0.5c0.3,0,0.5,0.2,0.5,0.5v5.3c0,0.3-0.2,0.5-0.5,0.5c-0.3,0-0.5-0.2-0.5-0.5
		V64.2z"/>
	<path class="st1" d="M147.6,68.2c0.2,0.5,0.6,0.8,1.2,0.8c0.7,0,1.2-0.6,1.2-1.2v-3.5c0-0.3,0.2-0.5,0.5-0.5c0.3,0,0.5,0.2,0.5,0.5
		v3.5c0,1.2-1,2.2-2.2,2.2c-1,0-1.8-0.6-2.1-1.5c-0.1-0.3,0.1-0.5,0.3-0.6C147.2,67.8,147.5,67.9,147.6,68.2"/>
	<path class="st1" d="M161.2,20.8c0,0.5-0.4,0.9-0.9,0.9s-0.9-0.4-0.9-0.9c0-0.5,0.4-0.9,0.9-0.9S161.2,20.3,161.2,20.8"/>
</g>
</svg>
