<?xml version="1.0" encoding="utf-8"?>
<!-- Generator: Adobe Illustrator 22.0.1, SVG Export Plug-In . SVG Version: 6.00 Build 0)  -->
<svg version="1.1" id="Laag_1" xmlns="http://www.w3.org/2000/svg" xmlns:xlink="http://www.w3.org/1999/xlink" x="0px" y="0px"
	 viewBox="0 0 181.5 76" style="enable-background:new 0 0 181.5 76;" xml:space="preserve">
<style type="text/css">
	.st0{fill:#235329;}
	.st1{fill:#FFFFFF;}
</style>
<g>
	<path class="st0" d="M162.5,56.5c-0.5,2.2-2.5,0.9-3.1-0.9c-0.6,1.9-2.7,3-3.1,0.9c-0.4-2.2,3.2-8,3.2-8S163,54.3,162.5,56.5"/>
	<path class="st0" d="M160.9,44.4c-1.1,0.5-25.9,0.9-27.2,1.2c-0.3,4.3-0.5,7.5-0.5,9.6c0,1.2,0.2,1.7,0.5,1.7
		c0.5,0,1.2-0.6,2.1-1.8c0.9-1.2,1.7-2.7,2.6-4.6c0.9-1.9,1.4-2.9,1.6-2.9c0.2,0,0.3,0.1,0.3,0.4c0,0.8-0.4,2.1-1.3,3.9
		c-2.3,4.9-4.2,7.3-5.8,7.3c-1.6,0-2.5-0.2-2.8-0.6c-0.3-0.4-0.4-1.6-0.4-3.8c0-2.1,0.2-5.2,0.6-9.2c-1.5-0.3-2.2-0.9-2.3-1.8
		c0-0.5,0.3-0.7,0.9-0.7s1.1,0.1,1.6,0.3c0.3-2.1,0.6-4.2,0.9-6.4c0.1-0.6,0.4-1.1,0.8-1.6c0.5-0.5,0.9-0.7,1.4-0.7
		c0.4,0,0.6,0.6,0.6,1.8c0,0.6-0.2,3.1-0.6,7.6c0.8-0.1,25.9-0.8,26.9-0.9C161,43.4,161.4,44.2,160.9,44.4"/>
	<path class="st0" d="M29.3,28.9l0.2-1.7c-0.1-2.3-1.2-3.5-3.2-3.5c-1.2,0-2.2,0.6-3,1.9c-0.9,1.2-1.3,2.5-1.3,3.9
		c0,1.4,0.4,2.6,1.2,3.6c0.8,1,1.7,1.9,2.8,2.7c1.1,0.8,2.2,1.7,3.3,2.6c1.1,0.9,2,2.1,2.8,3.6c0.8,1.5,1.2,3.1,1.2,5
		c0,3.9-1,6.9-3.1,9.1c-2,2.2-4.2,3.3-6.6,3.3c-2.4,0-4.3-0.6-5.9-1.9c-1.6-1.3-2.4-3.2-2.4-5.8c0-1.4,0.3-2.6,1-3.8
		c0.6-1.1,1.6-1.7,2.8-1.7c0.5,0,0.9,0.2,1.3,0.6c0.4,0.4,0.6,0.9,0.7,1.6c0,0.7-0.3,1-0.8,1c-1,0-1.5,0.6-1.5,1.9
		c0,1.4,0.5,2.7,1.4,3.9c0.9,1.2,2.1,1.8,3.8,1.8c1.6,0,3-0.8,4.1-2.5c1.2-1.6,1.7-3.6,1.7-6c0-1.6-0.4-3-1.2-4.2
		c-0.8-1.3-1.7-2.3-2.8-3.2c-1.1-0.9-2.2-1.8-3.3-2.7c-1.1-0.9-2.1-2-2.9-3.3c-0.8-1.3-1.2-2.8-1.2-4.4c0-2.9,0.8-5.2,2.5-7
		c1.7-1.7,3.6-2.6,5.7-2.6c1.4,0,2.7,0.4,3.9,1.3c1.2,0.9,1.8,2.2,1.8,4c0,1-0.2,1.9-0.5,2.6c-0.4,0.7-0.8,1-1.4,1
		C29.6,29.9,29.3,29.6,29.3,28.9"/>
	<path class="st0" d="M142.4,20.5c0,0-5,0.1-5.6,5.8c0,0-1.6,1-1.7,2.3c0,0,3.4-0.2,3.5,2.4c0,2.7-1.7,11,7.3,14.2
		c2.5,0.9,7.3-1.1,14.2,4.3c0,0-1.1-1.5-4.6-11.5l-1.3-3.5c-0.6-1.6-1.6-3.7-1.6-3.7S148.2,19.8,142.4,20.5"/>
	<path class="st0" d="M35.7,55.2l0.3-4.9c0-3.1,0.1-4.8,0.4-5.1c0.3-0.3,0.8-0.7,1.5-1.3s1.3-0.9,1.6-0.9c0.3,0,0.5,0.1,0.6,0.2
		c0.1,0.1,0.1,0.4,0.1,0.7c0,1.3-0.3,2.5-0.8,3.8c-0.4,2.7-0.7,4.9-0.7,6.6s0.3,2.6,0.8,2.6c0.7,0,1.5-0.6,2.4-1.7
		c0.9-1.2,1.8-2.9,2.7-5.2c0.3-2.9,0.5-4.5,0.6-4.7c0.2-0.2,0.6-0.7,1.2-1.3c0.6-0.6,1.2-0.9,1.6-0.9c0.4,0,0.6,0.6,0.6,1.7
		c0,0.3-0.1,0.9-0.2,1.7c-0.2,0.8-0.3,1.5-0.5,1.8c-0.3,0.8-0.5,3.3-0.5,7.6c0,0.8,0.1,1.2,0.3,1.2c0.5,0,1.2-0.6,2.1-1.9
		c0.9-1.2,1.7-2.8,2.6-4.6c0.9-1.9,1.4-2.8,1.6-2.8c0.2,0,0.3,0.1,0.3,0.3c0,0.8-0.4,2.1-1.3,3.9c-2.3,4.9-4.2,7.3-5.8,7.3
		c-1.1,0-2-0.2-2.6-0.7c-0.2-0.2-0.3-0.8-0.3-1.9c0-1,0-2.2,0.1-3.5c-0.9,2-1.9,3.5-2.8,4.5s-2,1.5-3.1,1.5s-1.9-0.3-2.3-0.9
		C35.8,57.7,35.7,56.7,35.7,55.2"/>
	<path class="st0" d="M55.3,54.3c-1.2,1.2-1.7,2.1-1.7,2.8c0,0.7,0.4,1.1,1.1,1.1c0.4,0,0.8-0.2,1.1-0.5
		C56.3,56.8,56.2,55.6,55.3,54.3 M58.1,45.7l0.1-0.7c0-0.5-0.3-0.8-0.9-0.8c-0.6,0-1.2,0.4-1.7,1.2c-0.6,0.8-0.8,1.4-0.8,1.9
		c0,0.5,0,0.9,0.1,1.2c0.1,0.3,0.1,0.5,0.2,0.7c0.1,0.2,0.2,0.4,0.4,0.7c0.2,0.3,0.3,0.5,0.4,0.6l0.5,0.6c0.2,0.3,0.3,0.5,0.4,0.6
		c1.5-1.2,3.3-2.6,5.4-4.2c0.1-0.1,0.2-0.1,0.4-0.1c0.3,0,0.4,0.2,0.4,0.5c0,0.3-0.1,0.6-0.4,0.7c-1.9,1.2-3.6,2.5-5.3,3.9
		c0.6,0.9,1,2,1,3.1c0,1.1-0.4,2.1-1.3,2.8c-0.8,0.8-1.9,1.2-3.2,1.2s-2-0.6-2-1.9c0-0.9,1-2.3,2.9-4.1c-0.1-0.2-0.4-0.5-0.8-0.9
		c-0.4-0.4-0.7-0.7-0.9-0.9c-0.2-0.2-0.4-0.5-0.7-0.9c-0.5-0.7-0.7-1.5-0.7-2.4c0-1.7,0.6-3.1,1.7-4.2c1.1-1.1,2.3-1.6,3.5-1.6
		c0.8,0,1.4,0.2,1.8,0.6c0.4,0.4,0.7,0.9,0.7,1.3c0,1-0.2,1.5-0.7,1.5C58.2,46,58.1,45.9,58.1,45.7"/>
	<path class="st0" d="M74.7,60.6l1.2-0.1c0.2,0,0.4,0.1,0.4,0.4c0,0.4-0.3,0.7-0.8,0.9S74.3,62,73.6,62c-1.3,0-2.4-0.5-3.3-1.6
		c-0.9-1-2.1-3-3.7-5.8C66.2,54,66,53.5,66,53.2c0-0.4,0.6-0.9,1.8-1.5c2-1,3-2.3,3-3.8c0-0.4-0.2-0.8-0.5-1.1
		c-0.3-0.3-0.7-0.5-1.2-0.5c-0.7,0-1.5,0.8-2.5,2.5c-1,1.6-1.6,3.2-1.9,4.6c-0.3,1.4-0.5,3-0.5,4.6c0,0.8-0.2,1.2-0.7,1.2
		c-0.7,0-1.3-0.1-1.9-0.3s-0.9-0.4-0.9-0.7c0-0.3,0.1-1.7,0.4-4.1c0.2-2.5,0.4-4.2,0.4-5.3c0.1-5.9,0.5-10.5,1-13.6
		c0.1-0.3,0.5-0.7,1.2-1.4c0.7-0.6,1.3-1,1.7-1c0.4,0,0.6,0.5,0.6,1.6c0,1.1-0.3,3.4-0.7,7c-0.5,3.6-0.8,6.9-0.9,9.8
		c0.5-1.9,1.4-3.6,2.5-5.3c1.1-1.7,2.3-2.5,3.5-2.5c2,0,3,1,3,2.9c0,1.3-0.4,2.4-1.1,3.5c-0.8,1-1.8,1.9-3.1,2.5
		c-0.3,0.1-0.4,0.2-0.4,0.4c0,0.1,0,0.3,0.1,0.4c1.8,3.2,3.4,5.5,4.7,6.8C73.9,60.4,74.3,60.6,74.7,60.6"/>
	<path class="st0" d="M78.7,51.7c1.7-0.3,3-0.8,3.8-1.7c0.8-0.8,1.2-1.9,1.2-3.2c0-1.3-0.4-2-1.3-2c-1,0-1.9,0.7-2.6,2.1
		C79.1,48.5,78.7,50,78.7,51.7 M81,59.2c-1.6,0-2.9-0.6-3.9-1.9c-1-1.2-1.4-2.6-1.4-4.2c0-3.2,0.7-5.6,2-7.2
		c1.3-1.6,3.1-2.4,5.2-2.4c1,0,1.8,0.3,2.4,0.8c0.6,0.5,1,1.3,1,2.2c0,1.7-0.7,3.2-2.2,4.4c-1.5,1.2-3.3,1.8-5.4,1.9
		c0.1,1.1,0.5,2.1,1.2,2.9c0.7,0.8,1.4,1.2,2.3,1.2c0.9,0,1.7-0.2,2.4-0.6c0.7-0.4,1.3-1,1.9-1.7c1.2-1.6,2.3-3.4,3.1-5.5
		c0.2-0.5,0.4-0.9,0.5-1.1c0.1-0.2,0.3-0.3,0.4-0.3c0.2,0,0.2,0.1,0.2,0.3c0,1.5-0.9,3.6-2.7,6.5C86.2,57.7,83.8,59.2,81,59.2"/>
	<path class="st0" d="M103.1,44.8c-0.3,0-0.4,0.5-0.4,1.5c0,1,0.4,1.9,1.4,2.8c0-0.1,0-0.4,0-0.7C104.2,45.9,103.8,44.8,103.1,44.8
		 M106.6,50c1.2,0,2.4-0.5,3.4-1.6c0.5-0.5,0.9-0.8,1.1-0.8c0.2,0,0.3,0.1,0.3,0.4c0,0.3-0.2,0.6-0.6,1c-1.5,1.7-3.5,2.6-5.8,2.6
		c-0.5,2.2-1.2,3.9-2.2,5.4s-2.2,2.2-3.8,2.2c-1.5,0-2.6-0.9-3.3-2.7c-1.2,1.8-2.4,2.7-3.7,2.7c-2.4,0-3.6-2.3-3.6-7
		c0-3.2,0.3-5.4,1-6.6c0.1-0.2,0.6-0.5,1.3-1c0.8-0.5,1.3-0.7,1.6-0.7c0.4,0,0.7,0.3,0.7,0.8c-0.1,1.4-0.5,3-1.2,4.8
		c-0.2,0.3-0.3,1.2-0.3,2.5c0,1.3,0.2,2.5,0.5,3.5c0.3,1,0.7,1.5,1.3,1.5c0.6,0,1.3-0.7,2.1-2.1c-0.1-0.7-0.2-1.5-0.2-2.3
		s0.1-1.7,0.3-2.7c0.2-0.9,0.5-1.9,1-2.9c0.5-1,1.1-1.4,1.9-1.4c0.2,0,0.4,0.1,0.5,0.2c0.1,0.1,0.2,0.5,0.2,1c0,1.5-0.4,3.3-1.2,5.5
		c0.1,1.3,0.4,2.4,0.9,3.3c0.5,0.9,1,1.3,1.6,1.3c0.8,0,1.6-0.5,2.1-1.6c0.6-1.1,1-2.4,1.4-4c-1.1-0.3-1.9-0.8-2.5-1.7
		c-0.6-0.8-0.9-1.8-0.9-2.8c0-1.1,0.3-2,0.8-2.8c0.5-0.8,1.3-1.2,2.2-1.2c1.3,0,2,1.4,2,4.3c0,0.8,0,1.5-0.1,2.4
		C105.8,49.9,106.2,50,106.6,50"/>
	<path class="st0" d="M110.4,37.7c0-0.5,0.3-1,0.8-1.4c0.6-0.4,1-0.6,1.5-0.6c0.8,0,1.2,0.5,1.2,1.4c0,0.9-0.2,1.7-0.7,2.3
		c-0.5,0.7-1.1,1-2,1C110.6,40.4,110.4,39.5,110.4,37.7 M111.6,59.2c-1.1,0-2-0.2-2.6-0.7c-0.2-0.2-0.3-0.9-0.3-2.2
		c0-1.2,0.1-3.3,0.3-6.3c0.2-2.9,0.4-4.5,0.5-4.7s0.6-0.7,1.4-1.3c0.8-0.6,1.3-1,1.8-1c0.4,0,0.6,0.6,0.6,1.7c0,0.3-0.1,0.9-0.2,1.7
		c-0.2,0.8-0.3,1.5-0.5,1.8c-0.4,1-0.6,3.5-0.6,7.6c0,0.8,0.1,1.2,0.3,1.2c0.5,0,1.2-0.6,2.1-1.9c0.9-1.2,1.7-2.8,2.6-4.6
		c0.9-1.9,1.4-2.8,1.6-2.8c0.2,0,0.3,0.1,0.3,0.3c0,0.8-0.4,2.1-1.3,3.9C115.1,56.8,113.2,59.2,111.6,59.2"/>
	<path class="st0" d="M119.4,51.7c1.7-0.3,3-0.8,3.8-1.7c0.8-0.8,1.2-1.9,1.2-3.2c0-1.3-0.4-2-1.3-2c-1,0-1.9,0.7-2.6,2.1
		C119.8,48.5,119.4,50,119.4,51.7 M121.7,59.2c-1.6,0-2.9-0.6-3.9-1.9c-1-1.2-1.4-2.6-1.4-4.2c0-3.2,0.7-5.6,2-7.2
		c1.3-1.6,3.1-2.4,5.2-2.4c1,0,1.8,0.3,2.4,0.8c0.6,0.5,1,1.3,1,2.2c0,1.7-0.7,3.2-2.2,4.4c-1.5,1.2-3.3,1.8-5.4,1.9
		c0.1,1.1,0.5,2.1,1.2,2.9c0.7,0.8,1.4,1.2,2.3,1.2c0.9,0,1.7-0.2,2.4-0.6c0.7-0.4,1.3-1,1.9-1.7c1.2-1.6,2.3-3.4,3.1-5.5
		c0.2-0.5,0.4-0.9,0.5-1.1c0.1-0.2,0.3-0.3,0.4-0.3c0.2,0,0.2,0.1,0.2,0.3c0,1.5-0.9,3.6-2.7,6.5C126.9,57.7,124.5,59.2,121.7,59.2"
		/>
	<path class="st1" d="M143.2,25.8c0,0.5-0.4,0.8-0.8,0.8s-0.8-0.4-0.8-0.8c0-0.5,0.4-0.8,0.8-0.8S143.2,25.3,143.2,25.8"/>
</g>
</svg>
