<?xml version="1.0" encoding="utf-8"?>
<!-- Generator: Adobe Illustrator 22.0.1, SVG Export Plug-In . SVG Version: 6.00 Build 0)  -->
<svg version="1.1" id="Laag_1" xmlns="http://www.w3.org/2000/svg" xmlns:xlink="http://www.w3.org/1999/xlink" x="0px" y="0px"
	 viewBox="0 0 205 85" style="enable-background:new 0 0 205 85;" xml:space="preserve">
<style type="text/css">
	.st0{clip-path:url(#SVGID_2_);fill:#C2C92F;}
	.st1{clip-path:url(#SVGID_2_);fill:#235329;}
	.st2{clip-path:url(#SVGID_2_);fill:#FFFFFF;}
</style>
<g>
	<defs>
		<rect id="SVGID_1_" x="20.1" y="16.8" width="159.2" height="55"/>
	</defs>
	<clipPath id="SVGID_2_">
		<use xlink:href="#SVGID_1_"  style="overflow:visible;"/>
	</clipPath>
	<path class="st0" d="M179.3,55.7c-0.5,2.3-2.7,1-3.4-1c-0.7,2-2.9,3.3-3.4,1c-0.5-2.3,3.4-8.6,3.4-8.6S179.8,53.4,179.3,55.7"/>
	<path class="st0" d="M177.5,42.7c-1.2,0.5-28,1-29.4,1.3c-0.4,4.6-0.6,8.1-0.6,10.4c0,1.3,0.2,1.9,0.6,1.9c0.6,0,1.3-0.7,2.3-2
		c0.9-1.3,1.9-3,2.8-5c0.9-2.1,1.5-3.1,1.7-3.1c0.2,0,0.3,0.1,0.3,0.4c0,0.9-0.5,2.3-1.4,4.2c-2.5,5.3-4.6,7.9-6.3,7.9
		c-1.7,0-2.7-0.2-3-0.6c-0.3-0.4-0.4-1.8-0.4-4.1c0-2.3,0.2-5.6,0.7-10c-1.6-0.3-2.4-1-2.5-1.9c0-0.5,0.3-0.8,1-0.8
		c0.7,0,1.2,0.1,1.7,0.4c0.3-2.3,0.6-4.6,1-6.9c0.1-0.6,0.4-1.2,0.9-1.7c0.5-0.5,1-0.8,1.5-0.8c0.4,0,0.6,0.6,0.6,1.9
		c0,0.6-0.2,3.4-0.7,8.3c0.8-0.2,28-0.9,29.1-0.9C177.7,41.6,178,42.5,177.5,42.7"/>
	<path class="st0" d="M35.3,26l0.2-1.8c-0.1-2.5-1.3-3.8-3.4-3.8c-1.3,0-2.4,0.7-3.3,2c-0.9,1.3-1.4,2.7-1.4,4.2
		c0,1.5,0.4,2.8,1.2,3.9c0.8,1.1,1.8,2.1,3,3c1.2,0.9,2.4,1.8,3.5,2.8c1.2,1,2.2,2.3,3,3.9c0.8,1.6,1.2,3.4,1.2,5.4
		c0,4.2-1.1,7.5-3.3,9.9C34,57.8,31.6,59,29,59c-2.5,0-4.7-0.7-6.4-2.1c-1.7-1.4-2.5-3.5-2.5-6.3c0-1.5,0.3-2.9,1-4.1
		c0.7-1.2,1.7-1.8,3-1.8c0.5,0,1,0.2,1.4,0.6c0.4,0.4,0.7,1,0.8,1.7c0,0.7-0.3,1.1-0.8,1.1c-1.1,0-1.6,0.7-1.6,2
		c0,1.5,0.5,3,1.5,4.2c1,1.3,2.3,1.9,4.1,1.9c1.7,0,3.2-0.9,4.5-2.7c1.2-1.8,1.9-3.9,1.9-6.5c0-1.7-0.4-3.2-1.3-4.6
		c-0.8-1.4-1.9-2.5-3.1-3.5c-1.2-1-2.4-1.9-3.6-2.9c-1.2-1-2.2-2.2-3.1-3.6c-0.8-1.4-1.3-3-1.3-4.8c0-3.1,0.9-5.7,2.7-7.5
		c1.8-1.9,3.9-2.8,6.2-2.8c1.5,0,2.9,0.5,4.2,1.4c1.3,0.9,1.9,2.4,1.9,4.3c0,1.1-0.2,2.1-0.6,2.8c-0.4,0.8-0.9,1.1-1.5,1.1
		C35.6,27,35.3,26.7,35.3,26"/>
	<path class="st0" d="M157.5,16.9c0,0-5.4,0.1-6.1,6.3c0,0-1.7,1-1.8,2.5c0,0,3.7-0.2,3.7,2.6c0,2.9-1.9,11.9,7.9,15.3
		c2.7,0.9,7.9-1.2,15.3,4.6c0,0-1.2-1.6-5-12.4l-1.5-3.8c-0.7-1.7-1.7-4-1.7-4S163.8,16.1,157.5,16.9"/>
	<path class="st0" d="M42.2,54.4l0.3-5.3c0-3.4,0.2-5.2,0.5-5.5c0.3-0.3,0.9-0.8,1.7-1.4s1.4-0.9,1.7-0.9s0.6,0.1,0.7,0.2
		c0.1,0.1,0.1,0.4,0.1,0.8c0,1.4-0.3,2.7-0.9,4.1c-0.5,2.9-0.7,5.3-0.7,7.1c0,1.9,0.3,2.8,0.9,2.8c0.7,0,1.6-0.6,2.5-1.9
		c1-1.3,1.9-3.1,2.9-5.6c0.3-3.1,0.5-4.8,0.7-5.1c0.2-0.2,0.6-0.7,1.3-1.4c0.7-0.7,1.3-1,1.7-1c0.5,0,0.7,0.6,0.7,1.8
		c0,0.3-0.1,0.9-0.3,1.8c-0.2,0.9-0.4,1.6-0.6,2c-0.3,0.9-0.5,3.6-0.5,8.2c0,0.8,0.1,1.3,0.3,1.3c0.5,0,1.3-0.7,2.2-2
		c0.9-1.3,1.9-3,2.8-5s1.5-3.1,1.7-3.1c0.2,0,0.3,0.1,0.3,0.4c0,0.9-0.5,2.3-1.4,4.2c-2.5,5.3-4.6,7.9-6.3,7.9
		c-1.2,0-2.2-0.3-2.8-0.8c-0.2-0.2-0.3-0.9-0.3-2c0-1.1,0-2.4,0.1-3.8c-1,2.1-2,3.8-3,4.9c-1,1.1-2.1,1.7-3.4,1.7
		c-1.2,0-2.1-0.3-2.5-1C42.4,57.1,42.2,56,42.2,54.4"/>
	<path class="st0" d="M63.3,53.4c-1.3,1.3-1.9,2.3-1.9,3c0,0.8,0.4,1.2,1.2,1.2c0.5,0,0.9-0.2,1.2-0.6C64.5,56,64.3,54.8,63.3,53.4
		 M66.4,44.1l0.1-0.7c0-0.6-0.3-0.8-1-0.8c-0.6,0-1.3,0.4-1.9,1.3c-0.6,0.8-0.9,1.5-0.9,2.1c0,0.5,0,1,0.1,1.3
		c0.1,0.3,0.1,0.6,0.2,0.8c0.1,0.2,0.2,0.4,0.4,0.7c0.2,0.3,0.3,0.5,0.4,0.6l0.5,0.7c0.2,0.3,0.4,0.5,0.5,0.6
		c1.6-1.4,3.6-2.9,5.9-4.5c0.1-0.1,0.3-0.1,0.4-0.1c0.3,0,0.5,0.2,0.5,0.5s-0.1,0.6-0.4,0.8c-2,1.3-3.9,2.7-5.7,4.2
		c0.7,1,1,2.1,1,3.3s-0.5,2.2-1.4,3.1c-0.9,0.8-2.1,1.3-3.5,1.3s-2.1-0.7-2.1-2c0-1,1-2.5,3.1-4.5c-0.2-0.2-0.4-0.5-0.8-0.9
		c-0.4-0.4-0.7-0.8-0.9-1c-0.2-0.3-0.4-0.6-0.7-1c-0.5-0.8-0.8-1.6-0.8-2.5c0-1.9,0.6-3.4,1.8-4.5c1.2-1.1,2.5-1.7,3.8-1.7
		c0.8,0,1.5,0.2,2,0.7c0.5,0.5,0.7,0.9,0.7,1.4c0,1.1-0.3,1.6-0.8,1.6C66.5,44.4,66.4,44.3,66.4,44.1"/>
	<path class="st0" d="M84.4,60.2l1.3-0.1c0.3,0,0.4,0.1,0.4,0.4c0,0.4-0.3,0.8-0.9,1c-0.6,0.2-1.3,0.3-2,0.3c-1.4,0-2.6-0.6-3.6-1.7
		c-1-1.1-2.3-3.2-4-6.3c-0.4-0.7-0.6-1.2-0.6-1.5c0-0.5,0.7-1,2-1.7c2.1-1.1,3.2-2.5,3.2-4.2c0-0.5-0.2-0.9-0.5-1.2
		c-0.3-0.3-0.8-0.5-1.3-0.5c-0.8,0-1.7,0.9-2.7,2.7c-1,1.8-1.7,3.4-2.1,5c-0.4,1.6-0.5,3.2-0.5,5c0,0.9-0.3,1.3-0.8,1.3
		c-0.7,0-1.4-0.1-2.1-0.3c-0.7-0.2-1-0.5-1-0.8c0-0.3,0.1-1.8,0.4-4.5s0.4-4.6,0.4-5.7c0.1-6.4,0.5-11.3,1.1-14.7
		c0.1-0.3,0.5-0.8,1.3-1.5c0.8-0.7,1.4-1,1.9-1c0.5,0,0.7,0.6,0.7,1.8c0,1.2-0.3,3.7-0.8,7.6c-0.5,3.9-0.8,7.4-0.9,10.6
		c0.6-2,1.5-3.9,2.7-5.7c1.2-1.8,2.5-2.7,3.8-2.7c2.1,0,3.2,1,3.2,3.1c0,1.4-0.4,2.6-1.2,3.8c-0.8,1.1-1.9,2-3.3,2.7
		c-0.3,0.1-0.4,0.3-0.4,0.4c0,0.2,0,0.3,0.1,0.5c2,3.5,3.7,5.9,5.1,7.4C83.5,60,83.9,60.2,84.4,60.2"/>
	<path class="st0" d="M88.6,50.6c1.9-0.3,3.2-0.9,4.1-1.8c0.9-0.9,1.3-2,1.3-3.4s-0.5-2.1-1.4-2.1c-1.1,0-2,0.8-2.8,2.3
		C89.1,47.1,88.7,48.8,88.6,50.6 M91.1,58.7c-1.8,0-3.2-0.7-4.2-2c-1-1.3-1.6-2.9-1.6-4.6c0-3.4,0.7-6,2.2-7.8
		c1.4-1.8,3.3-2.6,5.6-2.6c1.1,0,2,0.3,2.6,0.9c0.7,0.6,1,1.4,1,2.4c0,1.9-0.8,3.5-2.4,4.7c-1.6,1.3-3.5,1.9-5.8,2
		c0.1,1.2,0.5,2.3,1.3,3.2c0.7,0.9,1.5,1.3,2.5,1.3c0.9,0,1.8-0.2,2.5-0.7c0.8-0.4,1.4-1.1,2.1-1.9c1.3-1.7,2.5-3.7,3.4-5.9
		c0.2-0.6,0.4-1,0.6-1.2c0.1-0.3,0.3-0.4,0.5-0.4c0.2,0,0.3,0.1,0.3,0.4c0,1.6-1,3.9-2.9,7.1C96.7,57.1,94.2,58.7,91.1,58.7"/>
	<path class="st0" d="M115.1,43.1c-0.3,0-0.4,0.5-0.4,1.6s0.5,2.1,1.5,3c0-0.2,0-0.4,0-0.7C116.2,44.4,115.8,43.1,115.1,43.1
		 M118.8,48.7c1.3,0,2.5-0.6,3.7-1.7c0.6-0.6,1-0.8,1.2-0.8s0.3,0.2,0.3,0.5c0,0.3-0.2,0.7-0.6,1.1c-1.7,1.9-3.8,2.8-6.3,2.8
		c-0.5,2.3-1.3,4.3-2.4,5.8c-1.1,1.6-2.4,2.3-4.1,2.3c-1.6,0-2.8-1-3.5-2.9c-1.3,1.9-2.6,2.9-4,2.9c-2.6,0-3.9-2.5-3.9-7.5
		c0-3.5,0.3-5.9,1-7.1c0.1-0.2,0.6-0.6,1.4-1.1c0.8-0.5,1.4-0.8,1.7-0.8c0.5,0,0.7,0.3,0.7,0.8c-0.1,1.5-0.5,3.2-1.3,5.2
		c-0.2,0.4-0.3,1.3-0.3,2.7c0,1.4,0.2,2.7,0.5,3.8c0.3,1.1,0.8,1.6,1.4,1.6c0.6,0,1.4-0.8,2.3-2.3c-0.2-0.8-0.2-1.6-0.2-2.5
		c0-0.9,0.1-1.9,0.3-2.9c0.2-1,0.6-2.1,1.1-3.1c0.6-1,1.2-1.6,2-1.6c0.3,0,0.4,0.1,0.5,0.2c0.1,0.2,0.2,0.5,0.2,1.1
		c0,1.6-0.4,3.6-1.3,6c0.1,1.4,0.4,2.6,1,3.5c0.5,1,1.1,1.4,1.7,1.4c0.9,0,1.7-0.6,2.3-1.8c0.6-1.2,1.1-2.6,1.5-4.3
		c-1.2-0.3-2.1-0.9-2.7-1.8c-0.6-0.9-0.9-1.9-0.9-3c0-1.1,0.3-2.1,0.8-3c0.6-0.8,1.4-1.3,2.4-1.3c1.4,0,2.2,1.6,2.2,4.7
		c0,0.8,0,1.7-0.1,2.5C117.9,48.7,118.4,48.7,118.8,48.7"/>
	<path class="st0" d="M122.9,35.4c0-0.6,0.3-1.1,0.9-1.5c0.6-0.4,1.1-0.6,1.6-0.6c0.8,0,1.3,0.5,1.3,1.5c0,1-0.3,1.8-0.8,2.5
		c-0.5,0.7-1.2,1.1-2.1,1.1C123.2,38.4,122.9,37.4,122.9,35.4 M124.3,58.7c-1.2,0-2.2-0.3-2.8-0.8c-0.2-0.2-0.3-1-0.3-2.4
		c0-1.4,0.1-3.6,0.3-6.8c0.2-3.2,0.4-4.9,0.5-5.1s0.6-0.7,1.5-1.4c0.8-0.7,1.5-1,1.9-1c0.5,0,0.7,0.6,0.7,1.8c0,0.3-0.1,0.9-0.3,1.8
		c-0.2,0.9-0.4,1.6-0.6,2c-0.4,1-0.6,3.8-0.6,8.2c0,0.8,0.1,1.3,0.3,1.3c0.5,0,1.3-0.7,2.2-2c0.9-1.3,1.9-3,2.8-5
		c0.9-2,1.5-3.1,1.7-3.1c0.2,0,0.3,0.1,0.3,0.4c0,0.9-0.5,2.3-1.4,4.2C128,56.1,126,58.7,124.3,58.7"/>
	<path class="st0" d="M132.6,50.6c1.9-0.3,3.2-0.9,4.1-1.8c0.9-0.9,1.3-2,1.3-3.4s-0.5-2.1-1.4-2.1c-1.1,0-2,0.8-2.8,2.3
		C133.1,47.1,132.7,48.8,132.6,50.6 M135.2,58.7c-1.8,0-3.2-0.7-4.2-2c-1-1.3-1.6-2.9-1.6-4.6c0-3.4,0.7-6,2.2-7.8
		c1.4-1.8,3.3-2.6,5.6-2.6c1.1,0,2,0.3,2.6,0.9c0.7,0.6,1,1.4,1,2.4c0,1.9-0.8,3.5-2.4,4.7c-1.6,1.3-3.5,1.9-5.8,2
		c0.1,1.2,0.5,2.3,1.3,3.2c0.7,0.9,1.5,1.3,2.5,1.3c0.9,0,1.8-0.2,2.5-0.7c0.8-0.4,1.4-1.1,2.1-1.9c1.3-1.7,2.5-3.7,3.4-5.9
		c0.3-0.6,0.4-1,0.6-1.2c0.1-0.3,0.3-0.4,0.5-0.4c0.2,0,0.3,0.1,0.3,0.4c0,1.6-1,3.9-2.9,7.1C140.8,57.1,138.2,58.7,135.2,58.7"/>
	<path class="st1" d="M69,71.3v-5.3c0-0.3,0.2-0.5,0.5-0.5s0.5,0.2,0.5,0.5v4.8h2.4c0.3,0,0.5,0.2,0.5,0.5c0,0.3-0.2,0.5-0.5,0.5
		h-2.9h0h0C69.2,71.8,69,71.6,69,71.3"/>
	<path class="st1" d="M74.9,71.3v-5.3c0-0.3,0.2-0.5,0.5-0.5h0h0h2.9c0.3,0,0.5,0.2,0.5,0.5c0,0.3-0.2,0.5-0.5,0.5h-2.4v1.6h2.1
		c0.3,0,0.5,0.2,0.5,0.5c0,0.3-0.2,0.5-0.5,0.5h-2.1v1.6h2.4c0.3,0,0.5,0.2,0.5,0.5c0,0.3-0.2,0.5-0.5,0.5h-2.9c0,0,0,0,0,0l0,0
		C75.1,71.8,74.9,71.6,74.9,71.3"/>
	<path class="st1" d="M81.1,71.3v-5.3c0-0.3,0.2-0.5,0.5-0.5h0h0h2.9c0.3,0,0.5,0.2,0.5,0.5c0,0.3-0.2,0.5-0.5,0.5H82v1.6h2.1
		c0.3,0,0.5,0.2,0.5,0.5c0,0.3-0.2,0.5-0.5,0.5H82v1.6h2.4c0.3,0,0.5,0.2,0.5,0.5c0,0.3-0.2,0.5-0.5,0.5h-2.9c0,0,0,0,0,0l0,0
		C81.3,71.8,81.1,71.6,81.1,71.3"/>
	<path class="st1" d="M87.2,71.3v-5.3c0-0.3,0.2-0.5,0.5-0.5h0h0h2.9c0.3,0,0.5,0.2,0.5,0.5c0,0.3-0.2,0.5-0.5,0.5h-2.4v1.6h2.1
		c0.3,0,0.5,0.2,0.5,0.5c0,0.3-0.2,0.5-0.5,0.5h-2.1v2.1c0,0.3-0.2,0.5-0.5,0.5S87.2,71.6,87.2,71.3"/>
	<path class="st1" d="M94.5,70.8h1.1c0.5,0,0.9-0.4,0.9-0.9c0-0.5-0.4-0.9-0.9-0.9h-1.1V70.8z M94.5,68h0.8c0.4,0,0.7-0.3,0.7-0.7
		c0-0.4-0.3-0.7-0.7-0.7h-0.8V68z M93.5,71.3v-5.3c0-0.3,0.2-0.5,0.5-0.5h0h0h1.2c0.9,0,1.7,0.8,1.7,1.7c0,0.4-0.1,0.7-0.3,1
		c0.5,0.3,0.9,0.9,0.9,1.6c0,1.1-0.9,1.9-1.9,1.9H94c0,0,0,0,0,0c0,0,0,0,0,0C93.7,71.8,93.5,71.6,93.5,71.3"/>
	<path class="st1" d="M104.5,68.6c0-0.6-0.2-1.2-0.6-1.6c-0.4-0.4-0.9-0.6-1.4-0.6c-0.6,0-1.1,0.2-1.4,0.6c-0.4,0.4-0.6,1-0.6,1.6
		c0,0.6,0.2,1.2,0.6,1.6c0.4,0.4,0.9,0.6,1.4,0.6c0.5,0,1-0.2,1.4-0.6C104.3,69.8,104.5,69.2,104.5,68.6 M104.6,66.3
		c0.6,0.6,0.9,1.4,0.9,2.3c0,0.9-0.3,1.7-0.9,2.3c-0.5,0.6-1.3,1-2.1,1c-0.9,0-1.6-0.4-2.2-1c-0.6-0.6-0.9-1.4-0.9-2.3
		c0-0.9,0.3-1.7,0.9-2.3c0.5-0.6,1.3-1,2.2-1C103.3,65.4,104.1,65.8,104.6,66.3"/>
	<path class="st1" d="M108.2,71.3v-5.3c0-0.3,0.2-0.5,0.5-0.5h0h0h2.9c0.3,0,0.5,0.2,0.5,0.5c0,0.3-0.2,0.5-0.5,0.5h-2.4v1.6h2.1
		c0.3,0,0.5,0.2,0.5,0.5c0,0.3-0.2,0.5-0.5,0.5h-2.1v1.6h2.4c0.3,0,0.5,0.2,0.5,0.5c0,0.3-0.2,0.5-0.5,0.5h-2.9c0,0,0,0,0,0l0,0
		C108.4,71.8,108.2,71.6,108.2,71.3"/>
	<path class="st1" d="M117.4,67.5c0-0.5-0.4-0.9-0.9-0.9h-1.1v1.8h1.1C117,68.4,117.4,68,117.4,67.5 M118.7,71.1
		c0.1,0.3-0.1,0.5-0.3,0.6c0,0-0.1,0-0.2,0h0c-0.1,0-0.2,0-0.3-0.1c-0.1-0.1-0.2-0.2-0.3-0.3c-0.1-0.3-0.2-0.6-0.2-1.1
		c0-0.2,0-0.3-0.1-0.4c-0.1-0.1-0.2-0.2-0.3-0.3c-0.2-0.1-0.4-0.2-0.5-0.2h-1.1v1.9c0,0.3-0.2,0.5-0.5,0.5s-0.5-0.2-0.5-0.5v-5.3
		c0-0.3,0.2-0.5,0.5-0.5h0h1.6c1.1,0,1.9,0.9,1.9,1.9c0,0.6-0.3,1.1-0.7,1.5c0.1,0.1,0.2,0.2,0.3,0.3c0.2,0.3,0.3,0.6,0.3,1
		c0,0.3,0,0.4,0,0.5C118.5,70.8,118.6,70.9,118.7,71.1"/>
	<path class="st1" d="M122,70.8h0.6c1.2,0,2.1-1,2.1-2.1c0-1.2-0.9-2.1-2.1-2.1H122V70.8z M121,71.3v-5.3c0-0.3,0.2-0.5,0.5-0.5h1.1
		c1.7,0,3.1,1.4,3.1,3.1c0,1.7-1.4,3.1-3.1,3.1h-1.1C121.2,71.8,121,71.6,121,71.3"/>
	<path class="st1" d="M127.9,71.3v-5.3c0-0.3,0.2-0.5,0.5-0.5h0h0h2.9c0.3,0,0.5,0.2,0.5,0.5c0,0.3-0.2,0.5-0.5,0.5h-2.4v1.6h2.1
		c0.3,0,0.5,0.2,0.5,0.5c0,0.3-0.2,0.5-0.5,0.5h-2.1v1.6h2.4c0.3,0,0.5,0.2,0.5,0.5c0,0.3-0.2,0.5-0.5,0.5h-2.9c0,0,0,0,0,0l0,0
		C128.1,71.8,127.9,71.6,127.9,71.3"/>
	<path class="st1" d="M137.1,67.5c0-0.5-0.4-0.9-0.9-0.9h-1.1v1.8h1.1C136.7,68.4,137.1,68,137.1,67.5 M138.4,71.1
		c0.1,0.3-0.1,0.5-0.3,0.6c0,0-0.1,0-0.2,0h0c-0.1,0-0.2,0-0.3-0.1c-0.1-0.1-0.2-0.2-0.3-0.3c-0.1-0.3-0.2-0.6-0.2-1.1
		c0-0.2,0-0.3-0.1-0.4c-0.1-0.1-0.2-0.2-0.3-0.3c-0.2-0.1-0.4-0.2-0.5-0.2h-1.1v1.9c0,0.3-0.2,0.5-0.5,0.5c-0.3,0-0.5-0.2-0.5-0.5
		v-5.3c0-0.3,0.2-0.5,0.5-0.5h0h1.6c1.1,0,1.9,0.9,1.9,1.9c0,0.6-0.3,1.1-0.7,1.5c0.1,0.1,0.2,0.2,0.3,0.3c0.2,0.3,0.3,0.6,0.3,1
		c0,0.3,0,0.4,0,0.5C138.2,70.8,138.3,70.9,138.4,71.1"/>
	<path class="st1" d="M140.8,66.1c0-0.3,0.2-0.5,0.5-0.5c0.3,0,0.5,0.2,0.5,0.5v5.3c0,0.3-0.2,0.5-0.5,0.5c-0.3,0-0.5-0.2-0.5-0.5
		V66.1z"/>
	<path class="st1" d="M144.8,70c0.2,0.5,0.6,0.8,1.2,0.8c0.7,0,1.2-0.6,1.2-1.2v-3.5c0-0.3,0.2-0.5,0.5-0.5c0.3,0,0.5,0.2,0.5,0.5
		v3.5c0,1.2-1,2.2-2.2,2.2c-1,0-1.8-0.6-2.1-1.5c-0.1-0.3,0.1-0.5,0.3-0.6C144.4,69.6,144.7,69.7,144.8,70"/>
	<path class="st2" d="M158.4,22.6c0,0.5-0.4,0.9-0.9,0.9s-0.9-0.4-0.9-0.9c0-0.5,0.4-0.9,0.9-0.9S158.4,22.1,158.4,22.6"/>
</g>
</svg>
